<?xml version="1.0" standalone="no"?>
<!DOCTYPE svg PUBLIC "-//W3C//DTD SVG 1.1//EN" "http://www.w3.org/Graphics/SVG/1.1/DTD/svg11.dtd" >
<!--
2013-9-30: Created.
-->
<svg>
<metadata>
Created by iconfont
</metadata>
<defs>

<font id="iconfont" horiz-adv-x="1024" >
  <font-face
    font-family="iconfont"
    font-weight="500"
    font-stretch="normal"
    units-per-em="1024"
    ascent="896"
    descent="-128"
  />
    <missing-glyph />
    
    <glyph glyph-name="posxiaoshousvg" unicode="&#59125;" d="M186.24 896h651.52Q1024 896 1024 709.76v-651.52Q1024-128 837.76-128H186.24Q0-128 0 58.24V709.76Q0 896 186.24 896zM790.4 608l-5.44 12.8a96 96 0 0 1-66.88 54.4 323.52 323.52 0 0 1-83.52 7.36h-245.44a325.76 325.76 0 0 1-83.52-7.36 96 96 0 0 1-66.56-55.04L233.6 608a155.2 155.2 0 0 1-20.16-70.08c0-22.4 16.96-344.32 17.6-358.08A85.12 85.12 0 0 1 265.6 108.8a164.16 164.16 0 0 1 96-23.36h298.88a164.16 164.16 0 0 1 96 23.36 85.44 85.44 0 0 1 34.56 70.4c0 13.76 17.6 336 17.6 358.4A156.16 156.16 0 0 1 790.4 608z m-34.24-427.84a64 64 0 0 0-23.68-52.16 125.12 125.12 0 0 0-71.04-15.36h-298.88A124.16 124.16 0 0 0 291.2 128a64 64 0 0 0-23.68 53.12c0 3.52-17.6 335.36-17.6 357.12a141.12 141.12 0 0 0 18.56 64l5.44 13.12A64 64 0 0 0 320 650.56a276.8 276.8 0 0 0 70.4 5.76h245.12a276.8 276.8 0 0 0 70.4-5.76 62.08 62.08 0 0 0 44.8-37.76l5.76-13.12a141.12 141.12 0 0 0 18.56-64c-0.96-20.16-18.56-352-18.88-355.52zM716.48 561.6H311.68c-9.92 0-18.24-6.08-18.24-13.12s8.32-13.12 18.24-13.12h404.8c9.92 0 18.24 5.76 18.24 13.12s-8.32 13.12-18.24 13.12zM729.6 487.04a22.72 22.72 0 0 1-13.12 4.16H311.68a22.72 22.72 0 0 1-13.12-4.16 11.84 11.84 0 0 1-5.12-9.6c3.84-76.8 10.56-207.36 15.36-296a38.4 38.4 0 0 1 15.04-32 66.24 66.24 0 0 1 40.96-10.88h298.88A66.24 66.24 0 0 1 704 150.4a39.36 39.36 0 0 1 15.04 32c4.8 94.08 11.52 222.08 15.04 296a10.88 10.88 0 0 1-4.48 8.64z m-46.72-304.64a18.56 18.56 0 0 0-4.8-13.76 25.92 25.92 0 0 0-14.72-2.88H364.8c-11.52 0-18.88 0-19.52 16.64-4.48 83.52-10.88 204.48-14.72 282.24h366.72c-3.52-74.88-9.6-193.6-14.4-282.24zM593.6 593.92c7.36 0 13.12 4.16 13.12 9.28V614.4c0 5.44-5.76 9.6-13.12 9.6s-13.12-4.16-13.12-9.6v-11.2c0-5.12 6.08-9.28 13.12-9.28zM636.8 593.92c7.04 0 13.12 4.16 13.12 9.28V614.4c0 5.44-6.08 9.6-13.12 9.6s-13.12-4.16-13.12-9.6v-11.2c0-5.12 5.76-9.28 13.12-9.28zM679.68 593.92c7.36 0 13.12 4.16 13.12 9.28V614.4c0 5.44-5.76 9.6-13.12 9.6s-13.12-4.16-13.12-9.6v-11.2c0-5.12 5.44-9.28 13.12-9.28zM598.72 310.72a16.64 16.64 0 1 1 0 32h-41.28l55.68 69.44a16 16 0 0 1-3.52 23.36 18.88 18.88 0 0 1-25.28-3.2l-64-78.72-64 79.04a18.24 18.24 0 0 1-24.96 3.2 16 16 0 0 1-3.52-23.68l55.36-69.12h-39.68a17.28 17.28 0 0 1-17.6-16.64 16.96 16.96 0 0 1 17.6-16.64h59.52v-32h-59.52a16.96 16.96 0 0 1-17.6-16.64 17.28 17.28 0 0 1 17.6-16.64h59.52v-39.04a17.92 17.92 0 0 1 35.52 0v40.32h60.16a17.6 17.6 0 0 1 17.92 16.64 17.28 17.28 0 0 1-17.92 16.64h-59.2v32z"  horiz-adv-x="1024" />

    
    <glyph glyph-name="caigoudaohuorukusvg" unicode="&#59126;" d="M186.24 896h651.52Q1024 896 1024 709.76v-651.52Q1024-128 837.76-128H186.24Q0-128 0 58.24V709.76Q0 896 186.24 896zM512 672a18.88 18.88 0 0 1-19.2-18.24v-128l-41.92 40.32a20.16 20.16 0 0 1-13.44 5.12 18.88 18.88 0 0 1-17.28-11.2 17.28 17.28 0 0 1 3.84-19.84l74.56-71.04a19.2 19.2 0 0 1 26.56 0l74.88 71.68a16.96 16.96 0 0 1 7.04 18.56 18.24 18.24 0 0 1-14.72 13.76 19.2 19.2 0 0 1-19.2-7.36l-42.88-40.96v128A18.88 18.88 0 0 1 512 672zM279.36 96A54.4 54.4 0 0 0 224 149.12v288a16.96 16.96 0 0 0 4.16 10.88l44.48 54.08a84.48 84.48 0 0 0 32 32 104.64 104.64 0 0 0 42.24 5.44h27.52a18.24 18.24 0 0 0 0-36.48h-27.52a76.16 76.16 0 0 1-25.6-1.6 69.44 69.44 0 0 1-17.6-19.84l-38.4-46.4h493.44L721.28 480a76.8 76.8 0 0 1-17.92 20.8 85.76 85.76 0 0 1-25.6 1.92h-27.52a19.2 19.2 0 0 0-17.92 8.64 17.28 17.28 0 0 0 0 19.2 19.52 19.52 0 0 0 17.92 8.32h27.52a98.56 98.56 0 0 0 41.92-5.44 82.88 82.88 0 0 0 32-32L795.84 448a16.96 16.96 0 0 0 4.16-9.92v-288A54.4 54.4 0 0 0 744.64 96z m-11.84 66.56a25.6 25.6 0 0 1 26.24-24.96h436.8a27.2 27.2 0 0 1 18.56 7.36 25.28 25.28 0 0 1 7.68 17.6V393.6H267.52v-231.04zM486.72 181.76a20.16 20.16 0 0 0-11.84 3.84l-76.48 59.84a17.28 17.28 0 0 0-5.44 19.84 18.56 18.56 0 0 0 17.6 12.16 20.48 20.48 0 0 0 11.84-4.16l64-48.32 113.6 123.52a18.88 18.88 0 0 0 18.56 7.04 17.92 17.92 0 0 0 9.92-32l-125.76-136a17.92 17.92 0 0 0-14.08-6.08z"  horiz-adv-x="1024" />

    
    <glyph glyph-name="linjintiaoborukusvg" unicode="&#59127;" d="M186.24 896h651.52Q1024 896 1024 709.76v-651.52Q1024-128 837.76-128H186.24Q0-128 0 58.24V709.76Q0 896 186.24 896zM747.52 623.04h-52.16a28.8 28.8 0 0 1 0-57.6h52.16c-2.24 0 0-2.88 0-1.92v-399.36s-2.24-1.92 0-1.92H276.48c2.24 0 0 2.88 0 1.92V563.52s2.24 1.92 0 1.92h52.16a28.8 28.8 0 0 1 0 57.6H276.48A59.84 59.84 0 0 1 224 563.52v-399.36a59.52 59.52 0 0 1 52.48-59.52h471.04A59.52 59.52 0 0 1 800 164.16V563.52a59.84 59.84 0 0 1-52.48 59.52zM653.44 490.56h-41.92v144a26.24 26.24 0 1 1-52.48 0v-144h-41.92a5.44 5.44 0 0 1-5.12-5.76 7.36 7.36 0 0 1 0-4.8l68.16-99.84a4.8 4.8 0 0 1 7.36 0L657.6 480a6.72 6.72 0 0 1 0 8.32 6.08 6.08 0 0 1-4.16 2.24zM370.56 552h41.92v-144a26.24 26.24 0 1 1 52.48 0v144h41.92a5.44 5.44 0 0 1 5.12 5.76 6.4 6.4 0 0 1 0 3.52l-69.12 99.84a5.12 5.12 0 0 1-7.36 0l-68.16-99.84a6.4 6.4 0 0 1 0-8 4.48 4.48 0 0 1 3.2-1.28zM328.64 277.44a27.52 27.52 0 0 1 26.24-28.8h314.24a28.8 28.8 0 0 1 0 57.6h-314.24a27.52 27.52 0 0 1-26.24-28.8z"  horiz-adv-x="1024" />

    
    <glyph glyph-name="quanqudaodingdansvg" unicode="&#59128;" d="M186.24 896h651.52Q1024 896 1024 709.76v-651.52Q1024-128 837.76-128H186.24Q0-128 0 58.24V709.76Q0 896 186.24 896zM677.76 384H672a130.24 130.24 0 0 1-133.12-128v-5.44A130.56 130.56 0 0 1 672 128h5.76a130.88 130.88 0 0 1 128 121.92V256a129.92 129.92 0 0 1-128 128z m-3.52-237.12c-15.68 0-32 15.68-40.64 41.6a270.4 270.4 0 0 1 78.72 0l2.24-2.56c-10.24-24.96-24.32-40-39.04-41.28z m1.92 220.48c15.04 0 29.76-16.96 40-43.2a19.84 19.84 0 0 1-4.48-4.48A307.52 307.52 0 0 1 672 320a251.84 251.84 0 0 1-36.16-2.24l-3.2 3.84c10.24 26.88 25.6 42.88 41.28 43.52z m-53.44-83.2a23.04 23.04 0 0 1 17.92 19.84 250.24 250.24 0 0 0 32 1.92 202.56 202.56 0 0 0 35.84-2.56l1.6-5.44L625.92 224h-2.88a186.24 186.24 0 0 0-2.24 32 192 192 0 0 0 1.92 26.88z m96-1.6l4.48 3.84a15.36 15.36 0 0 1 5.76-1.92c0-9.6 1.6-18.24 1.92-26.24s-1.6-22.08-2.88-32a22.08 22.08 0 0 1-18.24-20.16 250.88 250.88 0 0 0-36.48-2.56 229.12 229.12 0 0 0-32 1.92 28.8 28.8 0 0 1-2.24 8.64z m-120 10.88a18.88 18.88 0 0 1 8-7.04 241.28 241.28 0 0 1-1.92-28.8 221.76 221.76 0 0 1 2.56-32 22.08 22.08 0 0 1-9.28-8.64c-24.96 9.92-39.04 22.72-40.32 36.16v3.52c-0.96 12.16 14.08 25.6 39.68 35.52z m153.28-75.84a21.76 21.76 0 0 1-7.68 6.4 221.76 221.76 0 0 1 2.56 32 248.96 248.96 0 0 1-1.92 30.08 19.52 19.52 0 0 1 6.08 5.44c23.04-9.6 37.44-23.36 37.76-36.48v-3.52c-2.56-13.44-15.68-25.6-38.08-35.2z m4.48 91.2a24.64 24.64 0 0 1-21.76 20.8 135.36 135.36 0 0 1-15.04 28.8 117.44 117.44 0 0 0 62.08-64 117.44 117.44 0 0 1-26.56 13.12z m-123.2 51.84a120.64 120.64 0 0 1-17.28-32 23.36 23.36 0 0 1-22.4-19.2 120.32 120.32 0 0 1-29.44-14.4 117.44 117.44 0 0 0 67.84 64.32z m-37.76-160a23.04 23.04 0 0 1 23.04-16.96 128 128 0 0 1 16.32-28.8 111.04 111.04 0 0 0-67.2 58.56 111.68 111.68 0 0 1 26.56-15.04z m124.48-43.52a113.28 113.28 0 0 1 13.12 25.6 23.68 23.68 0 0 1 22.4 19.2 103.36 103.36 0 0 1 23.04 11.52 112 112 0 0 0-59.84-58.56zM601.28 305.6a14.08 13.44 0 1 1 28.16 0 14.08 13.44 0 1 1-28.16 0ZM601.28 320zM601.28 319.04h0.64v-27.2h-0.64zM601.92 319.04h0.64v-27.2h-0.64zM602.24 319.04h0.64v-27.2h-0.64zM602.88 319.04h0.64v-27.2h-0.64zM603.52 319.04h0.64v-27.2h-0.64zM603.84 319.04h0.64v-27.2h-0.64zM604.48 319.04h0.64v-27.2h-0.64zM605.12 319.04h0.64v-27.2h-0.64zM605.76 319.04h0.64v-27.2h-0.64zM606.08 319.04h0.64v-27.2h-0.64zM606.72 319.04h0.64v-27.2h-0.64zM607.36 319.04H608v-27.2h-0.64zM608 319.04h0.64v-27.2H608zM608.32 319.04h0.64v-27.2h-0.64zM608.96 319.04h0.64v-27.2h-0.64zM609.6 319.04h0.64v-27.2h-0.64zM610.24 319.04h0.64v-27.2h-0.64zM610.56 319.04h0.64v-27.2h-0.64zM611.2 319.04h0.64v-27.2h-0.64zM611.84 319.04h0.64v-27.2h-0.64zM612.48 319.04h0.64v-27.2h-0.64zM612.8 319.04h0.64v-27.2h-0.64zM613.44 319.04h0.64v-27.2h-0.64zM614.08 319.04h0.64v-27.2h-0.64zM614.72 319.04h0.64v-27.2h-0.64zM615.04 319.04h0.64v-27.2h-0.64zM615.68 319.04h0.64v-27.2h-0.64zM616.32 319.04h0.64v-27.2h-0.64zM616.96 319.04h0.64v-27.2h-0.64zM617.28 319.04h0.64v-27.2h-0.64zM617.92 319.04h0.64v-27.2h-0.64zM618.56 319.04h0.64v-27.2h-0.64zM619.2 319.04h0.64v-27.2h-0.64zM619.52 319.04h0.64v-27.2h-0.64zM620.16 319.04h0.64v-27.2h-0.64zM620.8 319.04h0.64v-27.2h-0.64zM621.12 319.04h0.64v-27.2h-0.64zM621.76 319.04h0.64v-27.2h-0.64zM622.4 319.04h0.64v-27.2h-0.64zM623.04 319.04h0.64v-27.2h-0.64zM623.36 319.04h0.64v-27.2h-0.64zM624 319.04h0.64v-27.2h-0.64zM624.64 319.04h0.64v-27.2h-0.64zM625.28 319.04h0.64v-27.2h-0.64zM625.6 319.04h0.64v-27.2h-0.64zM626.24 319.04h0.64v-27.2h-0.64zM626.88 319.04h0.64v-27.2h-0.64zM627.52 319.04h0.64v-27.2h-0.64zM627.84 319.04h0.64v-27.2h-0.64zM628.48 319.04h0.64v-27.2h-0.64zM629.12 319.04h0.64v-27.2h-0.64zM629.76 292.16zM602.56 204.48a14.08 13.44 0 1 1 28.16 0 14.08 13.44 0 1 1-28.16 0ZM602.56 218.24zM602.56 218.24h0.64v-27.2h-0.64zM603.2 218.24h0.64v-27.2h-0.64zM603.52 218.24h0.64v-27.2h-0.64zM604.16 218.24h0.64v-27.2h-0.64zM604.8 218.24h0.64v-27.2h-0.64zM605.44 218.24h0.64v-27.2h-0.64zM605.76 218.24h0.64v-27.2h-0.64zM606.4 218.24h0.64v-27.2h-0.64zM607.04 218.24h0.64v-27.2h-0.64zM607.68 218.24h0.64v-27.2h-0.64zM608 218.24h0.64v-27.2H608zM608.64 218.24h0.64v-27.2h-0.64zM609.28 218.24h0.64v-27.2h-0.64zM609.92 218.24h0.64v-27.2h-0.64zM610.24 218.24h0.64v-27.2h-0.64zM610.88 218.24h0.64v-27.2h-0.64zM611.52 218.24h0.64v-27.2h-0.64zM612.16 218.24h0.64v-27.2h-0.64zM612.48 218.24h0.64v-27.2h-0.64zM613.12 218.24h0.64v-27.2h-0.64zM613.76 218.24h0.64v-27.2h-0.64zM614.4 218.24h0.64v-27.2h-0.64zM614.72 218.24h0.64v-27.2h-0.64zM615.36 218.24h0.64v-27.2h-0.64zM616 218.24h0.64v-27.2h-0.64zM616.64 218.24h0.64v-27.2h-0.64zM616.96 218.24h0.64v-27.2h-0.64zM617.6 218.24h0.64v-27.2h-0.64zM618.24 218.24h0.64v-27.2h-0.64zM618.56 218.24h0.64v-27.2h-0.64zM619.2 218.24h0.64v-27.2h-0.64zM619.84 218.24h0.64v-27.2h-0.64zM620.48 218.24h0.64v-27.2h-0.64zM620.8 218.24h0.64v-27.2h-0.64zM621.44 218.24h0.64v-27.2h-0.64zM622.08 218.24h0.64v-27.2h-0.64zM622.72 218.24h0.64v-27.2h-0.64zM623.04 218.24h0.64v-27.2h-0.64zM623.68 218.24h0.64v-27.2h-0.64zM624.32 218.24h0.64v-27.2h-0.64zM624.96 218.24h0.64v-27.2h-0.64zM625.28 218.24h0.64v-27.2h-0.64zM625.92 218.24h0.64v-27.2h-0.64zM626.56 218.24h0.64v-27.2h-0.64zM627.2 218.24h0.64v-27.2h-0.64zM627.52 218.24h0.64v-27.2h-0.64zM628.16 218.24h0.64v-27.2h-0.64zM628.8 218.24h0.64v-27.2h-0.64zM629.44 218.24h0.64v-27.2h-0.64zM629.76 218.24h0.64v-27.2h-0.64zM630.4 218.24h0.64v-27.2h-0.64zM631.04 192zM718.4 305.6a14.08 13.44 0 1 1 28.16 0 14.08 13.44 0 1 1-28.16 0ZM718.4 320zM718.4 319.04h0.64v-27.2h-0.64zM718.72 319.04h0.64v-27.2h-0.64zM719.36 319.04h0.64v-27.2h-0.64zM720 319.04h0.64v-27.2h-0.64zM720.64 319.04h0.64v-27.2h-0.64zM720.96 319.04h0.64v-27.2h-0.64zM721.6 319.04h0.64v-27.2h-0.64zM722.24 319.04h0.64v-27.2h-0.64zM722.88 319.04h0.64v-27.2h-0.64zM723.2 319.04h0.64v-27.2h-0.64zM723.84 319.04h0.64v-27.2h-0.64zM724.48 319.04h0.64v-27.2h-0.64zM725.12 319.04h0.64v-27.2h-0.64zM725.44 319.04h0.64v-27.2h-0.64zM726.08 319.04h0.64v-27.2h-0.64zM726.72 319.04h0.64v-27.2h-0.64zM727.04 319.04h0.64v-27.2h-0.64zM727.68 319.04h0.64v-27.2h-0.64zM728.32 319.04h0.64v-27.2h-0.64zM728.96 319.04h0.64v-27.2h-0.64zM729.28 319.04h0.64v-27.2h-0.64zM729.92 319.04h0.64v-27.2h-0.64zM730.56 319.04h0.64v-27.2h-0.64zM731.2 319.04h0.64v-27.2h-0.64zM731.52 319.04h0.64v-27.2h-0.64zM732.16 319.04h0.64v-27.2h-0.64zM732.8 319.04h0.64v-27.2h-0.64zM733.44 319.04h0.64v-27.2h-0.64zM733.76 319.04h0.64v-27.2h-0.64zM734.4 319.04h0.64v-27.2h-0.64zM735.04 319.04h0.64v-27.2h-0.64zM735.68 319.04h0.64v-27.2h-0.64zM736 319.04h0.64v-27.2H736zM736.64 319.04h0.64v-27.2h-0.64zM737.28 319.04h0.64v-27.2h-0.64zM737.92 319.04h0.64v-27.2h-0.64zM738.24 319.04h0.64v-27.2h-0.64zM738.88 319.04h0.64v-27.2h-0.64zM739.52 319.04h0.64v-27.2h-0.64zM740.16 319.04h0.64v-27.2h-0.64zM740.48 319.04h0.64v-27.2h-0.64zM741.12 319.04h0.64v-27.2h-0.64zM741.76 319.04h0.64v-27.2h-0.64zM742.4 319.04h0.64v-27.2h-0.64zM742.72 319.04h0.64v-27.2h-0.64zM743.36 319.04h0.64v-27.2h-0.64zM744 319.04h0.64v-27.2h-0.64zM744.32 319.04h0.64v-27.2h-0.64zM744.96 319.04h0.64v-27.2h-0.64zM745.6 319.04h0.64v-27.2h-0.64zM746.24 319.04h0.64v-27.2h-0.64zM746.56 292.16zM718.4 202.56a14.08 13.44 0 1 1 28.16 0 14.08 13.44 0 1 1-28.16 0ZM718.4 216zM718.4 216h0.64v-27.2h-0.64zM718.72 216h0.64v-27.2h-0.64zM719.36 216h0.64v-27.2h-0.64zM720 216h0.64v-27.2h-0.64zM720.64 216h0.64v-27.2h-0.64zM720.96 216h0.64v-27.2h-0.64zM721.6 216h0.64v-27.2h-0.64zM722.24 216h0.64v-27.2h-0.64zM722.88 216h0.64v-27.2h-0.64zM723.2 216h0.64v-27.2h-0.64zM723.84 216h0.64v-27.2h-0.64zM724.48 216h0.64v-27.2h-0.64zM725.12 216h0.64v-27.2h-0.64zM725.44 216h0.64v-27.2h-0.64zM726.08 216h0.64v-27.2h-0.64zM726.72 216h0.64v-27.2h-0.64zM727.04 216h0.64v-27.2h-0.64zM727.68 216h0.64v-27.2h-0.64zM728.32 216h0.64v-27.2h-0.64zM728.96 216h0.64v-27.2h-0.64zM729.28 216h0.64v-27.2h-0.64zM729.92 216h0.64v-27.2h-0.64zM730.56 216h0.64v-27.2h-0.64zM731.2 216h0.64v-27.2h-0.64zM731.52 216h0.64v-27.2h-0.64zM732.16 216h0.64v-27.2h-0.64zM732.8 216h0.64v-27.2h-0.64zM733.44 216h0.64v-27.2h-0.64zM733.76 216h0.64v-27.2h-0.64zM734.4 216h0.64v-27.2h-0.64zM735.04 216h0.64v-27.2h-0.64zM735.68 216h0.64v-27.2h-0.64zM736 216h0.64v-27.2H736zM736.64 216h0.64v-27.2h-0.64zM737.28 216h0.64v-27.2h-0.64zM737.92 216h0.64v-27.2h-0.64zM738.24 216h0.64v-27.2h-0.64zM738.88 216h0.64v-27.2h-0.64zM739.52 216h0.64v-27.2h-0.64zM740.16 216h0.64v-27.2h-0.64zM740.48 216h0.64v-27.2h-0.64zM741.12 216h0.64v-27.2h-0.64zM741.76 216h0.64v-27.2h-0.64zM742.4 216h0.64v-27.2h-0.64zM742.72 216h0.64v-27.2h-0.64zM743.36 216h0.64v-27.2h-0.64zM744 216h0.64v-27.2h-0.64zM744.32 216h0.64v-27.2h-0.64zM744.96 216h0.64v-27.2h-0.64zM745.6 216h0.64v-27.2h-0.64zM746.24 216h0.64v-27.2h-0.64zM746.56 189.12zM616.96 534.08a21.76 21.76 0 0 1-22.08 21.44h-264.96a21.44 21.44 0 0 1-21.76-21.44 21.12 21.12 0 0 1 21.76-21.12h264.96a21.44 21.44 0 0 1 22.08 21.12z m-44.8-128a21.76 21.76 0 0 1-22.08 21.44h-220.16a21.44 21.44 0 0 1-21.76-21.44 21.12 21.12 0 0 1 21.76-21.12h219.84a21.44 21.44 0 0 1 22.4 20.48z m-242.24-107.2a21.12 21.12 0 0 1-21.76-21.12 21.44 21.44 0 0 1 21.76-21.44h132.48a21.44 21.44 0 0 1 21.76 21.44 21.12 21.12 0 0 1-21.76 21.12zM550.08 148.16h-265.6a21.44 21.44 0 0 0-22.08 21.12V598.4a21.44 21.44 0 0 0 22.08 21.12H640a21.44 21.44 0 0 0 21.76-21.12v-171.52a21.76 21.76 0 0 1 22.08-21.44 21.44 21.44 0 0 1 21.76 21.44v192a43.84 43.84 0 0 1-44.16 43.2H262.4a43.84 43.84 0 0 1-43.84-42.24v-471.68a43.84 43.84 0 0 1 43.84-43.2h288a21.76 21.76 0 1 1 0 43.2z"  horiz-adv-x="1024" />

    
    <glyph glyph-name="tiaoboshenqingchukusvg" unicode="&#59129;" d="M186.24 896h651.52Q1024 896 1024 709.76v-651.52Q1024-128 837.76-128H186.24Q0-128 0 58.24V709.76Q0 896 186.24 896zM580.48 212.8a32 32 0 0 1 32 0 12.8 12.8 0 0 1 0 22.72l-84.8 58.24a32 32 0 0 1-32 0l-84.8-58.24a13.12 13.12 0 0 1 0-22.72 32 32 0 0 1 32 0l45.12 32v-129.92a24.32 24.32 0 0 1 46.72 0v128.96zM768 548.16a13.76 13.76 0 0 1-1.92 7.04 16.64 16.64 0 0 1-4.8 5.76l-136.96 105.92-4.48 2.24h-2.88A40.32 40.32 0 0 1 608 672h-282.24A64 64 0 0 1 256 617.92v-467.84A64 64 0 0 1 325.76 96h101.44a18.56 18.56 0 1 1 0 35.84h-101.44a21.44 21.44 0 0 0-23.36 18.24V617.92a21.12 21.12 0 0 0 23.36 17.92h258.88v-87.68a21.12 21.12 0 0 1 23.36-17.92h113.6v-380.16a21.44 21.44 0 0 0-23.36-18.24h-96a18.56 18.56 0 1 1 0-35.84h96A64 64 0 0 1 768 150.08V548.16z m-136.64 17.92V610.56l57.28-44.48zM397.12 366.08h229.76a21.12 21.12 0 0 1 23.36 17.92 21.12 21.12 0 0 1-23.36 17.92h-229.76a21.12 21.12 0 0 1-23.36-17.92 21.12 21.12 0 0 1 23.36-17.92zM397.12 463.68h229.76a21.12 21.12 0 0 1 23.36 17.92 21.44 21.44 0 0 1-23.36 18.24h-229.76a21.44 21.44 0 0 1-23.36-18.24 21.12 21.12 0 0 1 23.36-17.92z"  horiz-adv-x="1024" />

    
    <glyph glyph-name="jianhuodanhebingzhuangxiangsvg" unicode="&#59130;" d="M186.24 896h651.52Q1024 896 1024 709.76v-651.52Q1024-128 837.76-128H186.24Q0-128 0 58.24V709.76Q0 896 186.24 896zM778.24 96H250.56C224 96 224 119.04 224 119.04V466.88a19.52 19.52 0 0 0 5.76 17.6l180.48 181.44a20.48 20.48 0 1 0 28.8-29.12L288 486.08h448L584.64 636.8a20.48 20.48 0 1 0 28.8 29.12l180.48-181.44a19.84 19.84 0 0 0 5.76-17.6v-347.84a20.48 20.48 0 0 0-21.44-23.04zM578.56 283.84L540.8 246.4v135.36a28.48 28.48 0 1 1-56.96 0v-134.72l-37.76 37.76a27.52 27.52 0 0 1-39.68 0 28.16 28.16 0 0 1 0-40L492.16 160a24.96 24.96 0 0 1 39.68 0l85.76 85.44a28.16 28.16 0 0 1 0 40 29.12 29.12 0 0 1-39.04-1.6z"  horiz-adv-x="1024" />

    
    <glyph glyph-name="quanqudaofuhesvg" unicode="&#59131;" d="M186.24 896h651.52Q1024 896 1024 709.76v-651.52Q1024-128 837.76-128H186.24Q0-128 0 58.24V709.76Q0 896 186.24 896zM605.44 539.2a21.76 21.76 0 0 1-22.08 21.76H320a21.44 21.44 0 0 1-21.76-21.76 21.76 21.76 0 0 1 21.76-22.08h264.32a22.08 22.08 0 0 1 21.12 22.08z m-44.8-133.12a22.08 22.08 0 0 1-22.08 22.08H320a21.76 21.76 0 0 1-21.76-22.08 21.44 21.44 0 0 1 21.76-22.08h219.2a21.76 21.76 0 0 1 21.44 22.08zM320 295.68a22.08 22.08 0 0 1 0-44.16h131.2a22.08 22.08 0 0 1 0 44.16zM538.56 140.16H273.6a21.76 21.76 0 0 0-21.76 22.08V605.44a21.44 21.44 0 0 0 21.76 21.76h353.92a21.76 21.76 0 0 0 22.08-21.76v-177.28a21.76 21.76 0 1 1 43.52 0V627.84A44.16 44.16 0 0 1 649.28 672H251.84A43.84 43.84 0 0 1 208 627.84v-487.68A44.16 44.16 0 0 1 251.84 96h288a22.08 22.08 0 0 1 0 44.16zM688 107.84a132.16 132.16 0 1 1-128 132.16 129.6 129.6 0 0 1 128-132.16M688.64 339.52a99.52 99.52 0 1 0-96-99.2 97.92 97.92 0 0 0 96 99.2M751.04 288a16 16 0 0 0 0-21.76L679.04 192a14.08 14.08 0 0 0-20.48-2.24h-1.6l-30.08 32a15.36 15.36 0 0 0 0 21.44 14.4 14.4 0 0 0 20.16 0l19.52-20.16 64 65.92a14.08 14.08 0 0 0 20.48-0.96z"  horiz-adv-x="1024" />

    
    <glyph glyph-name="quanqudaoguanlisvg" unicode="&#59132;" d="M186.24 896h651.52Q1024 896 1024 709.76v-651.52Q1024-128 837.76-128H186.24Q0-128 0 58.24V709.76Q0 896 186.24 896zM524.8 682.56H512A298.56 298.56 0 0 1 213.44 384v-12.8A298.24 298.24 0 0 1 512 85.44h12.8a298.24 298.24 0 0 1 285.76 286.08V384a298.24 298.24 0 0 1-285.76 298.56z m-8-557.44c-35.52 0-69.12 37.12-90.88 96l2.88 3.84a574.08 574.08 0 0 1 176.64 1.92l4.8-5.76c-22.72-59.2-54.4-94.4-87.36-96z m4.48 518.08c33.92-2.88 66.56-39.68 89.92-101.44a57.28 57.28 0 0 1-10.56-10.88A549.12 549.12 0 0 1 512 537.6a526.4 526.4 0 0 1-80.96-5.76l-7.04 8.96c23.04 64 57.28 101.44 92.48 102.08zM401.28 448a53.12 53.12 0 0 1 40.32 46.08 499.2 499.2 0 0 0 70.4 5.12 459.84 459.84 0 0 0 80-6.08l3.52-12.8-187.2-169.92-6.4 1.92A513.92 513.92 0 0 0 396.8 384a481.92 481.92 0 0 0 4.48 64z m212.16-4.16l9.92 9.28a64 64 0 0 1 13.12-4.48 484.8 484.8 0 0 0 3.52-62.08 657.28 657.28 0 0 0-6.4-73.92 51.84 51.84 0 0 1-40.64-47.68 489.92 489.92 0 0 0-81.6-6.08 468.8 468.8 0 0 0-69.12 4.8 56.32 56.32 0 0 1-4.8 19.84z m-268.8 25.28a49.6 49.6 0 0 1 18.24-16.32A582.08 582.08 0 0 1 358.4 384a554.88 554.88 0 0 1 5.44-77.44 56.96 56.96 0 0 1-20.8-20.16C288 310.72 256 340.8 253.12 372.8v7.68c0.96 33.92 34.88 65.92 91.52 88.64zM688 291.2a55.04 55.04 0 0 1-16.64 15.36 554.88 554.88 0 0 1 5.44 77.44 611.84 611.84 0 0 1-4.8 70.4 52.8 52.8 0 0 1 14.08 12.48c51.52-22.08 83.84-54.4 84.48-85.12v-8.32c-2.56-31.04-31.68-59.84-82.56-82.24z m9.92 214.4a54.4 54.4 0 0 1-48 48.64 335.68 335.68 0 0 1-34.24 67.84 268.16 268.16 0 0 0 139.2-147.84 266.24 266.24 0 0 1-56.96 31.36zM422.4 627.52a281.28 281.28 0 0 1-38.4-75.2 54.4 54.4 0 0 1-50.24-44.8 277.44 277.44 0 0 1-65.92-34.56 267.84 267.84 0 0 0 154.56 154.56z m-85.12-378.56a53.12 53.12 0 0 1 52.16-40 302.72 302.72 0 0 1 36.16-67.52 256 256 0 0 0-150.4 137.92 256 256 0 0 1 62.08-30.4z m279.04-102.08a248.96 248.96 0 0 1 29.76 59.84 54.08 54.08 0 0 1 50.24 45.12 247.68 247.68 0 0 1 51.84 27.52 256 256 0 0 0-131.84-132.48zM386.56 501.12m-32 0a32 32 0 1 1 64 0 32 32 0 1 1-64 0ZM642.88 501.12m-32 0a32 32 0 1 1 64 0 32 32 0 1 1-64 0ZM645.76 258.88m-32 0a32 32 0 1 1 64 0 32 32 0 1 1-64 0ZM386.56 260.16m-32 0a32 32 0 1 1 64 0 32 32 0 1 1-64 0Z"  horiz-adv-x="1024" />

    
    <glyph glyph-name="kucunyujingsvg" unicode="&#59221;" d="M128 896h768Q1024 896 1024 768v-768q0-128-128-128h-768Q0-128 0 0v768Q0 896 128 896zM820.184615 474.190769l-291.643077 216.615385a39.384615 39.384615 0 0 1-7.286153 5.513846 19.692308 19.692308 0 0 1-26.781539-7.68l-289.673846-216.615385a23.236923 23.236923 0 0 1-3.150769-31.704615 19.692308 19.692308 0 0 1 28.947692-7.68l19.692308 15.36v-355.052308A23.630769 23.630769 0 0 1 273.132308 68.923077h460.012307H273.526154a19.692308 19.692308 0 0 1 5.907692 0h475.569231a23.630769 23.630769 0 0 1 22.843077 24.024615V445.636923l15.36-10.830769a19.692308 19.692308 0 0 1 28.947692 8.270769 24.418462 24.418462 0 0 1-1.969231 31.113846z m-179.396923-312.910769H377.107692a34.855385 34.855385 0 0 0-30.523077 19.692308 37.612308 37.612308 0 0 0 0 37.021538l131.741539 240.049231a34.461538 34.461538 0 0 0 61.243077 0l131.938461-240.049231a37.612308 37.612308 0 0 0 4.726154-18.510769 36.430769 36.430769 0 0 0-35.446154-38.203077zM509.046154 204.996923a21.661538 21.661538 0 0 0 0 43.323077 21.661538 21.661538 0 0 0 0-43.323077zM509.243077 264.664615c-6.695385 0-20.676923 72.270769-20.676923 90.978462s4.529231 32.492308 20.873846 32.492308 19.692308-13.390769 19.692308-32.492308-13.193846-90.978462-19.889231-90.978462z"  horiz-adv-x="1024" />

    
    <glyph glyph-name="dengdaichukusvg" unicode="&#59222;" d="M128 896h768Q1024 896 1024 768v-768q0-128-128-128h-768Q0-128 0 0v768Q0 896 128 896zM814.276923 504.32l-290.658461 191.606154A21.858462 21.858462 0 0 1 512 699.076923a21.464615 21.464615 0 0 1-11.815385-3.347692L209.526154 504.123077a28.16 28.16 0 0 1-10.043077-35.446154 22.252308 22.252308 0 0 1 31.704615-11.224615h1.378462l271.950769 179.593846a13.784615 13.784615 0 0 0 14.966154 0l271.950769-179.593846a22.055385 22.055385 0 0 1 32.295385 9.058461 28.356923 28.356923 0 0 1-8.073846 36.233846zM739.052308 453.12l-209.132308 136.073846a32.098462 32.098462 0 0 1-35.84 0l-209.132308-136.073846a40.763077 40.763077 0 0 1-17.723077-34.461538V108.307692a38.006154 38.006154 0 0 1 35.643077-39.384615h418.067693a37.809231 37.809231 0 0 1 35.643077 39.384615V418.658462a41.156923 41.156923 0 0 1-17.526154 34.461538zM374.153846 365.686154a15.36 15.36 0 0 0 3.150769 19.692308l74.043077 59.076923v-48.443077h167.384616a17.723077 17.723077 0 0 0 16.738461-18.51077v-7.68a17.723077 17.723077 0 0 0-16.541538-18.707692h-168.96l-0.984616-43.716923-71.483077 55.729231a18.313846 18.313846 0 0 0-3.347692 2.56z m253.046154-162.067692h-168.172308v-30.72a6.498462 6.498462 0 0 0-6.498461-6.695385 5.316923 5.316923 0 0 0-3.347693 1.181538l-61.833846 48.246154a14.769231 14.769231 0 0 0-3.150769 19.692308 12.603077 12.603077 0 0 0 3.150769 3.347692l64 50.412308a5.710769 5.710769 0 0 0 8.664616-1.575385 7.68 7.68 0 0 0 1.181538-4.135384v-34.658462h167.384616a17.723077 17.723077 0 0 0 16.738461-18.510769v-7.68a17.526154 17.526154 0 0 0-17.92-18.904615z"  horiz-adv-x="1024" />

    
    <glyph glyph-name="dengdairukusvg" unicode="&#59223;" d="M128 896h768Q1024 896 1024 768v-768q0-128-128-128h-768Q0-128 0 0v768Q0 896 128 896zM814.276923 504.32l-290.658461 191.606154A21.858462 21.858462 0 0 1 512 699.076923a21.464615 21.464615 0 0 1-11.815385-3.347692L209.526154 504.123077a28.16 28.16 0 0 1-10.043077-35.446154 22.252308 22.252308 0 0 1 31.704615-11.224615h1.378462l271.950769 179.593846a13.784615 13.784615 0 0 0 14.966154 0l271.950769-179.593846a22.055385 22.055385 0 0 1 32.295385 9.058461 28.356923 28.356923 0 0 1-8.073846 36.233846zM739.052308 453.12l-209.132308 136.073846a32.098462 32.098462 0 0 1-35.84 0l-209.132308-136.073846a40.763077 40.763077 0 0 1-17.723077-34.461538V108.307692a38.006154 38.006154 0 0 1 35.643077-39.384615h418.067693a37.809231 37.809231 0 0 1 35.643077 39.384615V418.658462a41.156923 41.156923 0 0 1-17.526154 34.461538zM630.153846 215.630769L567.926154 167.384615a5.316923 5.316923 0 0 0-3.347692-1.181538 6.301538 6.301538 0 0 0-6.498462 6.695385v30.72h-169.156923a17.526154 17.526154 0 0 0-16.738462 18.510769v7.68a17.92 17.92 0 0 0 16.738462 18.510769h167.581538v34.658462a7.68 7.68 0 0 0 1.181539 4.135384 5.907692 5.907692 0 0 0 8.861538 1.575385L630.153846 238.276923a25.403077 25.403077 0 0 0 3.150769-3.347692 15.163077 15.163077 0 0 0-3.150769-19.298462z m12.209231 150.055385a10.830769 10.830769 0 0 0-3.150769-3.544616l-71.483077-55.72923v43.716923h-169.747693a17.92 17.92 0 0 0-16.541538 18.707692v7.68a17.92 17.92 0 0 0 16.738462 18.510769h167.581538L564.775385 443.076923l74.043077-59.076923a14.769231 14.769231 0 0 0 3.150769-18.313846z"  horiz-adv-x="1024" />

    
    <glyph glyph-name="jingyingfenxisvg" unicode="&#59224;" d="M128 896h768Q1024 896 1024 768v-768q0-128-128-128h-768Q0-128 0 0v768Q0 896 128 896zM827.076923 274.707692a95.901538 95.901538 0 0 1-4.726154-11.224615A78.769231 78.769231 0 0 0 748.307692 202.633846H275.692308a78.769231 78.769231 0 0 0-74.24 60.849231 112.64 112.64 0 0 1-4.726154 11.224615V624.836923A85.661538 85.661538 0 0 0 281.009231 699.076923h461.981538a79.950769 79.950769 0 0 0 81.329231-67.544615c0-2.166154 1.772308-4.332308 2.756923-6.498462v-350.326154zM512 653.587692H284.16c-35.052308 0-47.458462-14.178462-47.852308-53.956923v-297.353846c0-39.384615 12.406154-54.153846 47.655385-54.153846h456.073846c34.461538 0 47.064615 14.178462 47.064615 53.366154V600.615385c0 39.384615-13.390769 53.366154-47.064615 53.366153-75.421538-0.393846-151.433846-0.393846-228.036923-0.393846zM315.076923 68.923077v42.535385h118.153846v44.701538h157.538462v-42.732308h118.153846V68.923077zM550.203077 293.021538h-76.209231V562.412308h76.209231z m157.538461 179.003077v-177.230769h-76.20923v177.230769z m-315.076923-179.003077h-75.815384v133.71077h75.815384z"  horiz-adv-x="1024" />

    
    <glyph glyph-name="houcangguanlisvg1" unicode="&#59230;" d="M186.027 896h651.946Q1024 896 1024 709.973v-651.946Q1024-128 837.973-128H186.027Q0-128 0 58.027V709.973Q0 896 186.027 896zM351.147 294.4H441.6v-136.533h90.453V294.4h90.027L486.4 430.933z m-60.16 375.467L230.4 533.333h512l-59.733 136.534zM742.4 213.333l-227.84-128h-5.973l-226.134 128a7.68 7.68 0 0 0-3.413 6.4v78.934a6.4 6.4 0 0 0 3.84 5.973 7.253 7.253 0 0 0 7.253 0l125.44-77.227 89.174 93.44a6.827 6.827 0 0 0 5.12 2.56 12.373 12.373 0 0 0 5.546-2.133l98.134-93.44L736 304.64a7.253 7.253 0 0 0 7.253 0 7.253 7.253 0 0 0 3.84-5.973v-78.08a6.4 6.4 0 0 0-4.693-7.254zM830.293 394.667a7.68 7.68 0 0 0 0-5.974 6.827 6.827 0 0 0-3.84-5.12l-215.893-121.6h-3.413a7.253 7.253 0 0 0-5.12 2.134l-94.294 93.44-90.88-93.867a7.68 7.68 0 0 0-5.12-2.133 6.4 6.4 0 0 0-3.84 0L197.12 384a5.547 5.547 0 0 0-3.413 5.12 6.827 6.827 0 0 0 0 5.547l78.933 93.013-78.507 79.787a6.827 6.827 0 0 0 0 5.973 5.973 5.973 0 0 0 3.84 5.12l195.84 104.107a6.4 6.4 0 0 0 6.827 0l108.8-64 108.373 64a7.253 7.253 0 0 0 7.254 0L828.16 579.413a6.827 6.827 0 0 0 3.84-5.12 6.4 6.4 0 0 0-2.133-5.973l-85.334-79.787zM298.667 489.813L512 375.04l213.333 114.773L512 604.587z"  horiz-adv-x="1024" />

    
    <glyph glyph-name="chukuguanli_1svg" unicode="&#59231;" d="M186.026667 896h651.946666Q1024 896 1024 709.973333v-651.946666Q1024-128 837.973333-128H186.026667Q0-128 0 58.026667V709.973333Q0 896 186.026667 896zM213.333333 85.333333V509.44L291.413333 682.666667h441.173334L810.666667 511.573333V85.333333H213.333333zM393.386667 303.36h79.36v-119.466667h78.933333v119.466667h78.933333L512 422.826667zM341.333333 631.893333L288 512h448L682.666667 631.893333z"  horiz-adv-x="1024" />

    
    <glyph glyph-name="danjuluzhi_1svg" unicode="&#59232;" d="M186.026667 896h651.946666Q1024 896 1024 709.973333v-651.946666Q1024-128 837.973333-128H186.026667Q0-128 0 58.026667V709.973333Q0 896 186.026667 896zM374.186667 298.666667h90.453333v-136.96H554.666667V298.666667h90.453333l-136.106667 136.106666zM314.026667 672.426667L256 536.32h512l-62.72 136.106667zM346.026667 651.093333V597.333333h331.946666V651.093333H810.666667V85.333333H213.333333V651.093333z m250.88-128l-42.666667-37.973333 81.92-70.4 42.666667 37.973333L597.333333 522.666667zM341.333333 305.493333v-71.253333h85.333334l-85.333334 71.253333zM533.333333 469.333333l-174.933333-148.053333 81.92-70.4 175.36 149.76z m-220.586666-259.413333v-56.746667h398.506666v56.746667z m265.813333 98.986667v-56.746667h132.693333v56.746667zM384 682.666667h269.653333v-58.88H384z"  horiz-adv-x="1024" />

    
    <glyph glyph-name="rukuguanli_1svg" unicode="&#59233;" d="M186.026667 896h651.946666Q1024 896 1024 709.973333v-651.946666Q1024-128 837.973333-128H186.026667Q0-128 0 58.026667V709.973333Q0 896 186.026667 896zM213.333333 85.333333V509.44L291.413333 682.666667h441.173334L810.666667 511.573333V85.333333H213.333333zM630.613333 303.36h-78.933333v119.466667h-78.933333v-119.466667H393.386667l118.613333-119.466667zM341.333333 631.893333L288 512h448L682.666667 631.893333z"  horiz-adv-x="1024" />

    
    <glyph glyph-name="tiaoboguanli_1svg" unicode="&#59234;" d="M186.026667 896h651.946666Q1024 896 1024 709.973333v-651.946666Q1024-128 837.973333-128H186.026667Q0-128 0 58.026667V709.973333Q0 896 186.026667 896zM213.333333 85.333333V509.44L291.413333 682.666667h441.173334L810.666667 511.573333V85.333333H213.333333zM654.08 300.373333v101.973334h-47.786667v-101.973334h-71.68l95.573334-111.36L725.333333 300.373333h-71.253333zM298.666667 290.986667h71.253333v-101.973334H418.133333v101.973334h71.253334l-95.573334 111.36L298.666667 290.986667zM341.333333 631.893333L288 512h448L682.666667 631.893333z"  horiz-adv-x="1024" />

    
    <glyph glyph-name="chuweiguanlisvg" unicode="&#59235;" d="M186.026667 896h651.946666Q1024 896 1024 709.973333v-651.946666Q1024-128 837.973333-128H186.026667Q0-128 0 58.026667V709.973333Q0 896 186.026667 896zM785.066667 467.2L521.813333 657.066667a16.64 16.64 0 0 1-19.626666 0L238.933333 467.2a10.24 10.24 0 0 1 6.826667-17.92h72.533333a8.96 8.96 0 0 0 8.96-8.96v-288.426667a42.666667 42.666667 0 0 1 42.666667-42.666666h279.893333a42.666667 42.666667 0 0 1 42.666667 42.666666v288.426667a8.533333 8.533333 0 0 0 8.96 8.533333h72.533333a10.666667 10.666667 0 0 1 11.093334 18.346667zM651.946667 85.333333H372.053333a66.56 66.56 0 0 0-66.56 66.56V426.666667h-59.733333a32.426667 32.426667 0 0 0-22.186667 56.32l263.68 190.293333a38.4 38.4 0 0 0 45.226667 0l264.533333-190.72a32.426667 32.426667 0 0 0 8.106667-35.413333 32.853333 32.853333 0 0 0-30.293333-20.906667h-59.733334v-275.626667A66.56 66.56 0 0 0 651.946667 85.333333z m-369.493334 384h36.266667a31.146667 31.146667 0 0 0 31.146667-31.146666v-288.426667a22.186667 22.186667 0 0 1 22.186666-22.613333h279.893334a22.186667 22.186667 0 0 1 22.186666 22.613333v290.56a31.146667 31.146667 0 0 0 31.146667 30.72h36.266667L512 636.586667zM482.56 389.973333H386.133333a11.52 11.52 0 0 1-11.52-11.52v-30.293333a11.52 11.52 0 0 1 11.52-11.52h96.426667a11.52 11.52 0 0 1 11.52 11.52v30.293333a11.52 11.52 0 0 1-11.52 11.52z m0-85.333333H386.133333a11.52 11.52 0 0 1-11.52-11.52v-30.293333a11.52 11.52 0 0 1 11.52-11.52h96.426667a11.52 11.52 0 0 1 11.52 11.52v30.293333a11.52 11.52 0 0 1-11.52 13.226667z m0-83.2H386.133333a11.52 11.52 0 0 1-11.52-11.52v-30.293333a11.52 11.52 0 0 1 11.52-11.52h96.426667a11.52 11.52 0 0 1 11.52 11.52V213.333333a11.52 11.52 0 0 1-11.52 9.813334zM640 306.346667h-98.56a11.52 11.52 0 0 1-11.52-11.52v-30.293334a11.52 11.52 0 0 1 11.52-11.52H640a11.52 11.52 0 0 1 11.52 11.52v30.293334a11.52 11.52 0 0 1-11.52 11.52z m0-83.2h-98.56a11.52 11.52 0 0 1-11.52-11.52v-30.293334a11.52 11.52 0 0 1 11.52-11.52H640a11.52 11.52 0 0 1 11.52 11.52V213.333333a11.52 11.52 0 0 1-11.52 9.813334z"  horiz-adv-x="1024" />

    
    <glyph glyph-name="quanqudaosvg" unicode="&#59236;" d="M186.026667 896h651.946666Q1024 896 1024 709.973333v-651.946666Q1024-128 837.973333-128H186.026667Q0-128 0 58.026667V709.973333Q0 896 186.026667 896zM524.8 682.666667H512a298.666667 298.666667 0 0 1-298.666667-298.666667v-12.8a298.666667 298.666667 0 0 1 298.666667-285.866667h12.8a298.666667 298.666667 0 0 1 285.866667 286.293334V384a298.666667 298.666667 0 0 1-285.866667 298.666667z m-8.106667-557.653334c-35.413333 0-68.693333 37.12-90.88 97.28l2.986667 3.84a570.88 570.88 0 0 1 176.64 0l4.693333-5.973333c-22.613333-56.746667-55.466667-92.16-87.466666-95.146667z m4.693334 517.973334c33.706667-2.56 66.56-39.253333 89.6-101.12a51.626667 51.626667 0 0 1-10.24-11.093334A532.906667 532.906667 0 0 1 512 537.6a588.8 588.8 0 0 1-80.64-5.546667l-7.253333 8.533334c23.466667 63.573333 57.6 101.546667 92.586666 102.4zM401.066667 448a54.186667 54.186667 0 0 1 40.533333 46.08A469.333333 469.333333 0 0 0 512 499.2a490.666667 490.666667 0 0 0 79.786667-5.973333l3.84-12.8-187.306667-170.666667-6.4 2.133333A484.266667 484.266667 0 0 0 396.8 384a543.573333 543.573333 0 0 0 4.266667 64z m213.333333-4.266667l9.813333 9.386667a77.653333 77.653333 0 0 1 12.8-4.693333 462.08 462.08 0 0 0 4.266667-61.866667 698.453333 698.453333 0 0 0-5.973333-74.24 51.2 51.2 0 0 1-42.666667-47.36 474.88 474.88 0 0 0-81.493333-6.4 438.186667 438.186667 0 0 0-69.12 5.12 57.173333 57.173333 0 0 1-4.693334 20.053333zM344.746667 469.333333a46.08 46.08 0 0 1 18.346666-16.64A484.693333 484.693333 0 0 1 358.4 384a506.026667 506.026667 0 0 1 5.546667-77.226667 58.88 58.88 0 0 1-20.906667-20.053333c-55.466667 22.613333-85.333333 52.906667-90.026667 85.333333v7.68c2.986667 34.56 34.133333 66.56 91.733334 89.6z m341.333333-177.92a52.48 52.48 0 0 1-17.066667 14.933334 515.84 515.84 0 0 1 7.68 77.653333 581.546667 581.546667 0 0 1-4.266666 70.4 57.173333 57.173333 0 0 1 14.08 12.8c51.626667-22.186667 85.333333-54.613333 85.333333-85.333333v-8.533334c-3.84-32-32.853333-59.733333-83.626667-81.92z m9.813333 213.333334A55.04 55.04 0 0 1 649.813333 554.666667a347.306667 347.306667 0 0 1-34.133333 67.84 267.946667 267.946667 0 0 0 139.093333-147.626667 273.066667 273.066667 0 0 1-56.746666 30.72zM422.4 627.2A288 288 0 0 1 384 552.106667a53.333333 53.333333 0 0 1-49.92-42.666667 274.773333 274.773333 0 0 1-66.133333-34.133333A268.373333 268.373333 0 0 0 422.4 627.2z m-85.333333-378.453333a52.48 52.48 0 0 1 52.053333-39.68 301.653333 301.653333 0 0 1 37.546667-67.413334 256 256 0 0 0-150.186667 137.813334 273.493333 273.493333 0 0 1 61.013333-30.72z m279.04-101.546667a269.226667 269.226667 0 0 1 29.866666 59.733333 54.186667 54.186667 0 0 1 49.92 42.666667 256 256 0 0 1 51.626667 27.306667 256 256 0 0 0-130.986667-129.706667zM386.56 500.906667m-32 0a32 32 0 1 1 64 0 32 32 0 1 1-64 0ZM642.986667 500.906667m-32 0a32 32 0 1 1 64 0 32 32 0 1 1-64 0ZM645.546667 258.56m-32 0a32 32 0 1 1 64 0 32 32 0 1 1-64 0ZM386.56 260.266667m-32 0a32 32 0 1 1 64 0 32 32 0 1 1-64 0Z"  horiz-adv-x="1024" />

    
    <glyph glyph-name="danjuguanlisvg" unicode="&#59237;" d="M186.026667 896h651.946666Q1024 896 1024 709.973333v-651.946666Q1024-128 837.973333-128H186.026667Q0-128 0 58.026667V709.973333Q0 896 186.026667 896zM768 560.213333V119.466667a23.893333 23.893333 0 0 0-24.32-23.893334H280.32A24.32 24.32 0 0 0 256 119.466667V560.213333a24.32 24.32 0 0 0 24.32 23.466667H341.333333V593.066667a12.8 12.8 0 0 0 12.8 13.653333H426.666667v4.266667a85.333333 85.333333 0 0 0 85.333333 61.44 85.333333 85.333333 0 0 0 82.346667-61.44 16.213333 16.213333 0 0 1 0-4.266667h72.96a13.653333 13.653333 0 0 0 15.36-13.653333v-9.386667h62.293333a23.466667 23.466667 0 0 0 23.04-23.466667z m-54.186667-410.026666v384H682.666667v-17.066667a12.8 12.8 0 0 0-13.653334-12.373333H355.413333A12.373333 12.373333 0 0 0 341.333333 517.973333v17.066667h-31.573333v-384z m-68.266666 402.346666v5.973334a13.653333 13.653333 0 0 1-14.08 13.226666H391.68a13.653333 13.653333 0 0 1-14.08-13.226666v-5.973334a13.653333 13.653333 0 0 1 14.08-12.373333h239.786667a13.653333 13.653333 0 0 1 14.08 12.373333zM465.066667 606.72h92.16A48.213333 48.213333 0 0 1 512 637.013333a49.493333 49.493333 0 0 1-46.933333-30.293333zM635.306667 422.826667a20.053333 20.053333 0 0 0 0-29.44L491.093333 256a20.053333 20.053333 0 0 0-14.933333-5.973333 21.333333 21.333333 0 0 0-15.36 5.973333l-72.106667 68.693333a19.2 19.2 0 0 0 0 28.586667 22.613333 22.613333 0 0 0 30.72 0L476.16 298.666667l128 123.306666a22.613333 22.613333 0 0 0 31.146667 0.853334z"  horiz-adv-x="1024" />

    
    <glyph glyph-name="chukuguanli_1svg1" unicode="&#59238;" d="M186.026667 896h651.946666Q1024 896 1024 709.973333v-651.946666Q1024-128 837.973333-128H186.026667Q0-128 0 58.026667V709.973333Q0 896 186.026667 896zM213.333333 85.333333V509.44L291.413333 682.666667h441.173334L810.666667 511.573333V85.333333H213.333333zM393.386667 303.36h79.36v-119.466667h78.933333v119.466667h78.933333L512 422.826667zM341.333333 631.893333L288 512h448L682.666667 631.893333z"  horiz-adv-x="1024" />

    
    <glyph glyph-name="rukuguanli_1svg1" unicode="&#59239;" d="M186.026667 896h651.946666Q1024 896 1024 709.973333v-651.946666Q1024-128 837.973333-128H186.026667Q0-128 0 58.026667V709.973333Q0 896 186.026667 896zM213.333333 85.333333V509.44L291.413333 682.666667h441.173334L810.666667 511.573333V85.333333H213.333333zM630.613333 303.36h-78.933333v119.466667h-78.933333v-119.466667H393.386667l118.613333-119.466667zM341.333333 631.893333L288 512h448L682.666667 631.893333z"  horiz-adv-x="1024" />

    
    <glyph glyph-name="danjuluzhi_1svg1" unicode="&#59240;" d="M186.026667 896h651.946666Q1024 896 1024 709.973333v-651.946666Q1024-128 837.973333-128H186.026667Q0-128 0 58.026667V709.973333Q0 896 186.026667 896zM374.186667 298.666667h90.453333v-136.96H554.666667V298.666667h90.453333l-136.106667 136.106666zM314.026667 672.426667L256 536.32h512l-62.72 136.106667zM346.026667 651.093333V597.333333h331.946666V651.093333H810.666667V85.333333H213.333333V651.093333z m250.88-128l-42.666667-37.973333 81.92-70.4 42.666667 37.973333L597.333333 522.666667zM341.333333 305.493333v-71.253333h85.333334l-85.333334 71.253333zM533.333333 469.333333l-174.933333-148.053333 81.92-70.4 175.36 149.76z m-220.586666-259.413333v-56.746667h398.506666v56.746667z m265.813333 98.986667v-56.746667h132.693333v56.746667zM384 682.666667h269.653333v-58.88H384z"  horiz-adv-x="1024" />

    
    <glyph glyph-name="danjuguanlisvg1" unicode="&#59241;" d="M186.026667 896h651.946666Q1024 896 1024 709.973333v-651.946666Q1024-128 837.973333-128H186.026667Q0-128 0 58.026667V709.973333Q0 896 186.026667 896zM768 560.213333V119.466667a23.893333 23.893333 0 0 0-24.32-23.893334H280.32A24.32 24.32 0 0 0 256 119.466667V560.213333a24.32 24.32 0 0 0 24.32 23.466667H341.333333V593.066667a12.8 12.8 0 0 0 12.8 13.653333H426.666667v4.266667a85.333333 85.333333 0 0 0 85.333333 61.44 85.333333 85.333333 0 0 0 82.346667-61.44 16.213333 16.213333 0 0 1 0-4.266667h72.96a13.653333 13.653333 0 0 0 15.36-13.653333v-9.386667h62.293333a23.466667 23.466667 0 0 0 23.04-23.466667z m-54.186667-410.026666v384H682.666667v-17.066667a12.8 12.8 0 0 0-13.653334-12.373333H355.413333A12.373333 12.373333 0 0 0 341.333333 517.973333v17.066667h-31.573333v-384z m-68.266666 402.346666v5.973334a13.653333 13.653333 0 0 1-14.08 13.226666H391.68a13.653333 13.653333 0 0 1-14.08-13.226666v-5.973334a13.653333 13.653333 0 0 1 14.08-12.373333h239.786667a13.653333 13.653333 0 0 1 14.08 12.373333zM465.066667 606.72h92.16A48.213333 48.213333 0 0 1 512 637.013333a49.493333 49.493333 0 0 1-46.933333-30.293333zM635.306667 422.826667a20.053333 20.053333 0 0 0 0-29.44L491.093333 256a20.053333 20.053333 0 0 0-14.933333-5.973333 21.333333 21.333333 0 0 0-15.36 5.973333l-72.106667 68.693333a19.2 19.2 0 0 0 0 28.586667 22.613333 22.613333 0 0 0 30.72 0L476.16 298.666667l128 123.306666a22.613333 22.613333 0 0 0 31.146667 0.853334z"  horiz-adv-x="1024" />

    
    <glyph glyph-name="chuweiguanlisvg1" unicode="&#59242;" d="M186.026667 896h651.946666Q1024 896 1024 709.973333v-651.946666Q1024-128 837.973333-128H186.026667Q0-128 0 58.026667V709.973333Q0 896 186.026667 896zM785.066667 467.2L521.813333 657.066667a16.64 16.64 0 0 1-19.626666 0L238.933333 467.2a10.24 10.24 0 0 1 6.826667-17.92h72.533333a8.96 8.96 0 0 0 8.96-8.96v-288.426667a42.666667 42.666667 0 0 1 42.666667-42.666666h279.893333a42.666667 42.666667 0 0 1 42.666667 42.666666v288.426667a8.533333 8.533333 0 0 0 8.96 8.533333h72.533333a10.666667 10.666667 0 0 1 11.093334 18.346667zM651.946667 85.333333H372.053333a66.56 66.56 0 0 0-66.56 66.56V426.666667h-59.733333a32.426667 32.426667 0 0 0-22.186667 56.32l263.68 190.293333a38.4 38.4 0 0 0 45.226667 0l264.533333-190.72a32.426667 32.426667 0 0 0 8.106667-35.413333 32.853333 32.853333 0 0 0-30.293333-20.906667h-59.733334v-275.626667A66.56 66.56 0 0 0 651.946667 85.333333z m-369.493334 384h36.266667a31.146667 31.146667 0 0 0 31.146667-31.146666v-288.426667a22.186667 22.186667 0 0 1 22.186666-22.613333h279.893334a22.186667 22.186667 0 0 1 22.186666 22.613333v290.56a31.146667 31.146667 0 0 0 31.146667 30.72h36.266667L512 636.586667zM482.56 389.973333H386.133333a11.52 11.52 0 0 1-11.52-11.52v-30.293333a11.52 11.52 0 0 1 11.52-11.52h96.426667a11.52 11.52 0 0 1 11.52 11.52v30.293333a11.52 11.52 0 0 1-11.52 11.52z m0-85.333333H386.133333a11.52 11.52 0 0 1-11.52-11.52v-30.293333a11.52 11.52 0 0 1 11.52-11.52h96.426667a11.52 11.52 0 0 1 11.52 11.52v30.293333a11.52 11.52 0 0 1-11.52 13.226667z m0-83.2H386.133333a11.52 11.52 0 0 1-11.52-11.52v-30.293333a11.52 11.52 0 0 1 11.52-11.52h96.426667a11.52 11.52 0 0 1 11.52 11.52V213.333333a11.52 11.52 0 0 1-11.52 9.813334zM640 306.346667h-98.56a11.52 11.52 0 0 1-11.52-11.52v-30.293334a11.52 11.52 0 0 1 11.52-11.52H640a11.52 11.52 0 0 1 11.52 11.52v30.293334a11.52 11.52 0 0 1-11.52 11.52z m0-83.2h-98.56a11.52 11.52 0 0 1-11.52-11.52v-30.293334a11.52 11.52 0 0 1 11.52-11.52H640a11.52 11.52 0 0 1 11.52 11.52V213.333333a11.52 11.52 0 0 1-11.52 9.813334z"  horiz-adv-x="1024" />

    
    <glyph glyph-name="tiaoboguanli_1svg1" unicode="&#59243;" d="M186.026667 896h651.946666Q1024 896 1024 709.973333v-651.946666Q1024-128 837.973333-128H186.026667Q0-128 0 58.026667V709.973333Q0 896 186.026667 896zM213.333333 85.333333V509.44L291.413333 682.666667h441.173334L810.666667 511.573333V85.333333H213.333333zM654.08 300.373333v101.973334h-47.786667v-101.973334h-71.68l95.573334-111.36L725.333333 300.373333h-71.253333zM298.666667 290.986667h71.253333v-101.973334H418.133333v101.973334h71.253334l-95.573334 111.36L298.666667 290.986667zM341.333333 631.893333L288 512h448L682.666667 631.893333z"  horiz-adv-x="1024" />

    
    <glyph glyph-name="quanqudaosvg1" unicode="&#59244;" d="M186.026667 896h651.946666Q1024 896 1024 709.973333v-651.946666Q1024-128 837.973333-128H186.026667Q0-128 0 58.026667V709.973333Q0 896 186.026667 896zM524.8 682.666667H512a298.666667 298.666667 0 0 1-298.666667-298.666667v-12.8a298.666667 298.666667 0 0 1 298.666667-285.866667h12.8a298.666667 298.666667 0 0 1 285.866667 286.293334V384a298.666667 298.666667 0 0 1-285.866667 298.666667z m-8.106667-557.653334c-35.413333 0-68.693333 37.12-90.88 97.28l2.986667 3.84a570.88 570.88 0 0 1 176.64 0l4.693333-5.973333c-22.613333-56.746667-55.466667-92.16-87.466666-95.146667z m4.693334 517.973334c33.706667-2.56 66.56-39.253333 89.6-101.12a51.626667 51.626667 0 0 1-10.24-11.093334A532.906667 532.906667 0 0 1 512 537.6a588.8 588.8 0 0 1-80.64-5.546667l-7.253333 8.533334c23.466667 63.573333 57.6 101.546667 92.586666 102.4zM401.066667 448a54.186667 54.186667 0 0 1 40.533333 46.08A469.333333 469.333333 0 0 0 512 499.2a490.666667 490.666667 0 0 0 79.786667-5.973333l3.84-12.8-187.306667-170.666667-6.4 2.133333A484.266667 484.266667 0 0 0 396.8 384a543.573333 543.573333 0 0 0 4.266667 64z m213.333333-4.266667l9.813333 9.386667a77.653333 77.653333 0 0 1 12.8-4.693333 462.08 462.08 0 0 0 4.266667-61.866667 698.453333 698.453333 0 0 0-5.973333-74.24 51.2 51.2 0 0 1-42.666667-47.36 474.88 474.88 0 0 0-81.493333-6.4 438.186667 438.186667 0 0 0-69.12 5.12 57.173333 57.173333 0 0 1-4.693334 20.053333zM344.746667 469.333333a46.08 46.08 0 0 1 18.346666-16.64A484.693333 484.693333 0 0 1 358.4 384a506.026667 506.026667 0 0 1 5.546667-77.226667 58.88 58.88 0 0 1-20.906667-20.053333c-55.466667 22.613333-85.333333 52.906667-90.026667 85.333333v7.68c2.986667 34.56 34.133333 66.56 91.733334 89.6z m341.333333-177.92a52.48 52.48 0 0 1-17.066667 14.933334 515.84 515.84 0 0 1 7.68 77.653333 581.546667 581.546667 0 0 1-4.266666 70.4 57.173333 57.173333 0 0 1 14.08 12.8c51.626667-22.186667 85.333333-54.613333 85.333333-85.333333v-8.533334c-3.84-32-32.853333-59.733333-83.626667-81.92z m9.813333 213.333334A55.04 55.04 0 0 1 649.813333 554.666667a347.306667 347.306667 0 0 1-34.133333 67.84 267.946667 267.946667 0 0 0 139.093333-147.626667 273.066667 273.066667 0 0 1-56.746666 30.72zM422.4 627.2A288 288 0 0 1 384 552.106667a53.333333 53.333333 0 0 1-49.92-42.666667 274.773333 274.773333 0 0 1-66.133333-34.133333A268.373333 268.373333 0 0 0 422.4 627.2z m-85.333333-378.453333a52.48 52.48 0 0 1 52.053333-39.68 301.653333 301.653333 0 0 1 37.546667-67.413334 256 256 0 0 0-150.186667 137.813334 273.493333 273.493333 0 0 1 61.013333-30.72z m279.04-101.546667a269.226667 269.226667 0 0 1 29.866666 59.733333 54.186667 54.186667 0 0 1 49.92 42.666667 256 256 0 0 1 51.626667 27.306667 256 256 0 0 0-130.986667-129.706667zM386.56 500.906667m-32 0a32 32 0 1 1 64 0 32 32 0 1 1-64 0ZM642.986667 500.906667m-32 0a32 32 0 1 1 64 0 32 32 0 1 1-64 0ZM645.546667 258.56m-32 0a32 32 0 1 1 64 0 32 32 0 1 1-64 0ZM386.56 260.266667m-32 0a32 32 0 1 1 64 0 32 32 0 1 1-64 0Z"  horiz-adv-x="1024" />

    
    <glyph glyph-name="xiaoshouguanlisvg" unicode="&#59245;" d="M186.026667 896h651.946666Q1024 896 1024 709.973333v-651.946666Q1024-128 837.973333-128H186.026667Q0-128 0 58.026667V709.973333Q0 896 186.026667 896zM758.186667 503.466667h-64.853334a34.133333 34.133333 0 0 1-34.133333-34.133334v-324.266666a34.133333 34.133333 0 0 1 34.133333-34.133334h64.853334a34.133333 34.133333 0 0 1 34.133333 34.133334V469.333333a34.133333 34.133333 0 0 1-34.133333 34.133334z m0-358.4h-64.853334V469.333333h64.853334zM330.666667 384H265.813333a34.133333 34.133333 0 0 1-34.133333-34.133333v-204.8a34.133333 34.133333 0 0 1 34.133333-34.133334h64.853334a34.133333 34.133333 0 0 1 34.133333 34.133334v204.8a34.133333 34.133333 0 0 1-34.133333 34.133333z m0-238.933333H265.813333v204.8h64.853334zM544.426667 657.066667h-64.853334a34.133333 34.133333 0 0 1-34.133333-34.133334v-477.866666a34.133333 34.133333 0 0 1 34.133333-34.133334h64.853334a34.133333 34.133333 0 0 1 34.133333 34.133334V622.933333a34.133333 34.133333 0 0 1-34.133333 34.133334z m0-512h-64.853334V622.933333h64.853334z"  horiz-adv-x="1024" />

    
    <glyph glyph-name="houcangguanlisvg2" unicode="&#59246;" d="M186.026667 896h651.946666Q1024 896 1024 709.973333v-651.946666Q1024-128 837.973333-128H186.026667Q0-128 0 58.026666999999975V709.973333Q0 896 186.026667 896zM840.106667 537.173333l-318.293334 143.36a25.173333 25.173333 0 0 1-22.186666 0c-101.973333-46.933333-204.373333-93.866667-306.773334-139.52-9.813333-4.266667-18.773333-8.106667-22.186666-18.346666v-42.666667a22.613333 22.613333 0 0 1 25.173333-13.653333 144.213333 144.213333 0 0 0 19.2 0V128a45.653333 45.653333 0 0 1 9.386667-30.72 35.84 35.84 0 0 1 26.88-13.226667h75.946666V362.66666699999996h368.64V85.33333300000004a669.866667 669.866667 0 0 1 87.893334 2.986667A42.666667 42.666667 0 0 1 810.666667 128v337.493333h23.893333a17.92 17.92 0 0 1 18.773333 19.626667v31.573333a20.48 20.48 0 0 1-13.226666 20.48zM391.253333 457.386667c0-5.12 0-7.253333-7.253333-7.253334H289.28c-6.4 0-8.106667 0-8.106667 8.106667v29.013333c0 5.12 0 6.4 7.253334 6.4H384c5.12 0 7.253333 0 7.253333-6.4a233.813333 233.813333 0 0 1 0-29.866666z m176.213334 29.013333v-29.866667c0-5.12-2.133333-6.4-7.253334-6.4H465.066667c-5.973333 0-8.106667 0-8.106667 8.106667V486.4c0 5.12 0 7.253333 7.253333 7.253333h96.426667c5.12 0.426667 7.68-2.133333 6.826667-7.253333z m176.64-29.013333a7.68 7.68 0 0 0 0-4.693334 7.253333 7.253333 0 0 0-6.826667-2.986666h-93.866667c-6.4 0-8.533333 0-8.533333 8.106666v27.733334c0 5.973333 0 8.106667 7.253333 8.106666h95.146667c5.546667 0 8.106667-2.133333 8.106667-7.253333zM645.12 241.06666700000005H380.16a9.813333 9.813333 0 0 0-10.24 9.813333v27.306667a9.813333 9.813333 0 0 0 10.24 9.813333h264.533333a9.813333 9.813333 0 0 0 9.813334-9.813333v-27.306667a9.386667 9.386667 0 0 0-9.386667-9.813333z m0-77.653334H380.16a9.813333 9.813333 0 0 0-10.24 9.813334v27.306666a9.813333 9.813333 0 0 0 10.24 9.813334h264.533333a9.813333 9.813333 0 0 0 9.813334-9.813334v-27.306666a9.386667 9.386667 0 0 0-9.386667-9.813334z m0-78.08H380.16a9.813333 9.813333 0 0 0-10.24 9.813334v27.306666a9.813333 9.813333 0 0 0 10.24 9.813334h264.533333a9.813333 9.813333 0 0 0 9.813334-9.813334v-27.306666a9.386667 9.386667 0 0 0-9.386667-9.813334z"  horiz-adv-x="1024" />

    
    <glyph glyph-name="houcangguanlisvg3" unicode="&#59247;" d="M186.027 896h651.946Q1024 896 1024 709.973v-651.946Q1024-128 837.973-128H186.027Q0-128 0 58.027V709.973Q0 896 186.027 896zM840.107 537.173l-318.294 143.36a25.173 25.173 0 0 1-22.186 0c-101.974-46.933-204.374-93.866-306.774-139.52-9.813-4.266-18.773-8.106-22.186-18.346V480a22.613 22.613 0 0 1 25.173-13.653 144.213 144.213 0 0 0 19.2 0V128a45.653 45.653 0 0 1 9.387-30.72 35.84 35.84 0 0 1 26.88-13.227h75.946V362.667h368.64v-277.334a669.867 669.867 0 0 1 87.894 2.987 42.667 42.667 0 0 1 26.88 39.68V465.493h23.893a17.92 17.92 0 0 1 18.773 19.627v31.573a20.48 20.48 0 0 1-13.226 20.48z m-448.854-79.786c0-5.12 0-7.254-7.253-7.254h-94.72c-6.4 0-8.107 0-8.107 8.107v29.013c0 5.12 0 6.4 7.254 6.4H384c5.12 0 7.253 0 7.253-6.4a233.813 233.813 0 0 1 0-29.866zM567.467 486.4v-29.867c0-5.12-2.134-6.4-7.254-6.4h-95.146c-5.974 0-8.107 0-8.107 8.107V486.4c0 5.12 0 7.253 7.253 7.253h96.427c5.12 0.427 7.68-2.133 6.827-7.253z m176.64-29.013a7.68 7.68 0 0 0 0-4.694 7.253 7.253 0 0 0-6.827-2.986h-93.867c-6.4 0-8.533 0-8.533 8.106v27.734c0 5.973 0 8.106 7.253 8.106h95.147c5.547 0 8.107-2.133 8.107-7.253zM645.12 241.067H380.16a9.813 9.813 0 0 0-10.24 9.813v27.307A9.813 9.813 0 0 0 380.16 288h264.533a9.813 9.813 0 0 0 9.814-9.813v-27.307a9.387 9.387 0 0 0-9.387-9.813z m0-77.654H380.16a9.813 9.813 0 0 0-10.24 9.814v27.306a9.813 9.813 0 0 0 10.24 9.814h264.533a9.813 9.813 0 0 0 9.814-9.814v-27.306a9.387 9.387 0 0 0-9.387-9.814z m0-78.08H380.16a9.813 9.813 0 0 0-10.24 9.814v27.306a9.813 9.813 0 0 0 10.24 9.814h264.533a9.813 9.813 0 0 0 9.814-9.814v-27.306a9.387 9.387 0 0 0-9.387-9.814z"  horiz-adv-x="1024" />

    
    <glyph glyph-name="dengdaichukusvg1" unicode="&#59248;" d="M128 896h768Q1024 896 1024 768v-768q0-128-128-128h-768Q0-128 0 0v768Q0 896 128 896zM814.276923 504.32l-290.658461 191.606154A21.858462 21.858462 0 0 1 512 699.076923a21.464615 21.464615 0 0 1-11.815385-3.347692L209.526154 504.123077a28.16 28.16 0 0 1-10.043077-35.446154 22.252308 22.252308 0 0 1 31.704615-11.224615h1.378462l271.950769 179.593846a13.784615 13.784615 0 0 0 14.966154 0l271.950769-179.593846a22.055385 22.055385 0 0 1 32.295385 9.058461 28.356923 28.356923 0 0 1-8.073846 36.233846zM739.052308 453.12l-209.132308 136.073846a32.098462 32.098462 0 0 1-35.84 0l-209.132308-136.073846a40.763077 40.763077 0 0 1-17.723077-34.461538V108.307692a38.006154 38.006154 0 0 1 35.643077-39.384615h418.067693a37.809231 37.809231 0 0 1 35.643077 39.384615V418.658462a41.156923 41.156923 0 0 1-17.526154 34.461538zM374.153846 365.686154a15.36 15.36 0 0 0 3.150769 19.692308l74.043077 59.076923v-48.443077h167.384616a17.723077 17.723077 0 0 0 16.738461-18.51077v-7.68a17.723077 17.723077 0 0 0-16.541538-18.707692h-168.96l-0.984616-43.716923-71.483077 55.729231a18.313846 18.313846 0 0 0-3.347692 2.56z m253.046154-162.067692h-168.172308v-30.72a6.498462 6.498462 0 0 0-6.498461-6.695385 5.316923 5.316923 0 0 0-3.347693 1.181538l-61.833846 48.246154a14.769231 14.769231 0 0 0-3.150769 19.692308 12.603077 12.603077 0 0 0 3.150769 3.347692l64 50.412308a5.710769 5.710769 0 0 0 8.664616-1.575385 7.68 7.68 0 0 0 1.181538-4.135384v-34.658462h167.384616a17.723077 17.723077 0 0 0 16.738461-18.510769v-7.68a17.526154 17.526154 0 0 0-17.92-18.904615z"  horiz-adv-x="1024" />

    
    <glyph glyph-name="dengdairukusvg1" unicode="&#59249;" d="M128 896h768Q1024 896 1024 768v-768q0-128-128-128h-768Q0-128 0 0v768Q0 896 128 896zM814.276923 504.32l-290.658461 191.606154A21.858462 21.858462 0 0 1 512 699.076923a21.464615 21.464615 0 0 1-11.815385-3.347692L209.526154 504.123077a28.16 28.16 0 0 1-10.043077-35.446154 22.252308 22.252308 0 0 1 31.704615-11.224615h1.378462l271.950769 179.593846a13.784615 13.784615 0 0 0 14.966154 0l271.950769-179.593846a22.055385 22.055385 0 0 1 32.295385 9.058461 28.356923 28.356923 0 0 1-8.073846 36.233846zM739.052308 453.12l-209.132308 136.073846a32.098462 32.098462 0 0 1-35.84 0l-209.132308-136.073846a40.763077 40.763077 0 0 1-17.723077-34.461538V108.307692a38.006154 38.006154 0 0 1 35.643077-39.384615h418.067693a37.809231 37.809231 0 0 1 35.643077 39.384615V418.658462a41.156923 41.156923 0 0 1-17.526154 34.461538zM630.153846 215.630769L567.926154 167.384615a5.316923 5.316923 0 0 0-3.347692-1.181538 6.301538 6.301538 0 0 0-6.498462 6.695385v30.72h-169.156923a17.526154 17.526154 0 0 0-16.738462 18.510769v7.68a17.92 17.92 0 0 0 16.738462 18.510769h167.581538v34.658462a7.68 7.68 0 0 0 1.181539 4.135384 5.907692 5.907692 0 0 0 8.861538 1.575385L630.153846 238.276923a25.403077 25.403077 0 0 0 3.150769-3.347692 15.163077 15.163077 0 0 0-3.150769-19.298462z m12.209231 150.055385a10.830769 10.830769 0 0 0-3.150769-3.544616l-71.483077-55.72923v43.716923h-169.747693a17.92 17.92 0 0 0-16.541538 18.707692v7.68a17.92 17.92 0 0 0 16.738462 18.510769h167.581538L564.775385 443.076923l74.043077-59.076923a14.769231 14.769231 0 0 0 3.150769-18.313846z"  horiz-adv-x="1024" />

    
    <glyph glyph-name="yidongpossvg" unicode="&#59250;" d="M186.24 896h651.52Q1024 896 1024 709.76v-651.52Q1024-128 837.76-128H186.24Q0-128 0 58.24V709.76Q0 896 186.24 896zM790.4 608l-5.44 12.8a96 96 0 0 1-66.88 54.4 323.52 323.52 0 0 1-83.52 7.36H389.12a325.76 325.76 0 0 1-83.52-7.36 96 96 0 0 1-66.56-55.04L233.6 608a155.2 155.2 0 0 1-20.16-70.08c0-22.4 16.96-344.32 17.6-358.08a85.12 85.12 0 0 1 34.56-71.04 164.16 164.16 0 0 1 96-23.36h298.88a164.16 164.16 0 0 1 96 23.36 85.44 85.44 0 0 1 34.56 70.4c0 13.76 17.6 336 17.6 358.4A156.16 156.16 0 0 1 790.4 608z m-34.24-427.84A64 64 0 0 0 732.48 128a125.12 125.12 0 0 0-71.04-15.36H362.56A124.16 124.16 0 0 0 291.2 128a64 64 0 0 0-23.68 53.12c0 3.52-17.6 335.36-17.6 357.12a141.12 141.12 0 0 0 18.56 64l5.44 13.12a64 64 0 0 0 46.08 35.2 276.8 276.8 0 0 0 70.4 5.76h245.12a276.8 276.8 0 0 0 70.4-5.76 62.08 62.08 0 0 0 44.8-37.76l5.76-13.12a141.12 141.12 0 0 0 18.56-64c-0.96-20.16-18.56-352-18.88-355.52zM716.48 561.6h-404.8c-9.92 0-18.24-6.08-18.24-13.12s8.32-13.12 18.24-13.12h404.8c9.92 0 18.24 5.76 18.24 13.12s-8.32 13.12-18.24 13.12z m13.12-74.56a22.72 22.72 0 0 1-13.12 4.16h-404.8a22.72 22.72 0 0 1-13.12-4.16 11.84 11.84 0 0 1-5.12-9.6c3.84-76.8 10.56-207.36 15.36-296a38.4 38.4 0 0 1 15.04-32 66.24 66.24 0 0 1 40.96-10.88h298.88A66.24 66.24 0 0 1 704 150.4a39.36 39.36 0 0 1 15.04 32c4.8 94.08 11.52 222.08 15.04 296a10.88 10.88 0 0 1-4.48 8.64zM682.88 182.4a18.56 18.56 0 0 0-4.8-13.76 25.92 25.92 0 0 0-14.72-2.88H364.8c-11.52 0-18.88 0-19.52 16.64-4.48 83.52-10.88 204.48-14.72 282.24h366.72c-3.52-74.88-9.6-193.6-14.4-282.24zM593.6 593.92c7.36 0 13.12 4.16 13.12 9.28v11.2c0 5.44-5.76 9.6-13.12 9.6s-13.12-4.16-13.12-9.6v-11.2c0-5.12 6.08-9.28 13.12-9.28z m43.2 0c7.04 0 13.12 4.16 13.12 9.28v11.2c0 5.44-6.08 9.6-13.12 9.6s-13.12-4.16-13.12-9.6v-11.2c0-5.12 5.76-9.28 13.12-9.28z m42.88 0c7.36 0 13.12 4.16 13.12 9.28v11.2c0 5.44-5.76 9.6-13.12 9.6s-13.12-4.16-13.12-9.6v-11.2c0-5.12 5.44-9.28 13.12-9.28z"  horiz-adv-x="1024" />

    
    <glyph glyph-name="zuoyefenpeisvg1" unicode="&#59251;" d="M186.24 896h651.52Q1024 896 1024 709.76v-651.52Q1024-128 837.76-128H186.24Q0-128 0 58.24V709.76Q0 896 186.24 896zM412.48 360.96h-71.04a24 24 0 0 1-21.76-24.64 21.12 21.12 0 0 1 21.76-21.76h71.04a23.36 23.36 0 0 1 3.52 46.4z m71.04 67.84a26.56 26.56 0 0 1-21.76 27.52H338.24a23.68 23.68 0 0 1-24.64-21.44v-3.2a24 24 0 0 1 21.44-24.64h123.84a24 24 0 0 1 24.64 21.76zM672 308.48v-27.52a13.12 13.12 0 0 0-12.16-12.48h-49.92v-46.08a2.88 2.88 0 0 0-2.88-3.2c-6.4-3.2-12.48 0-12.48 3.2l-37.12 58.56a28.16 28.16 0 0 0 0 32l37.12 58.56c0 2.88 3.2 2.88 3.2 2.88 6.08 3.2 12.16 0 12.16-2.88V320h46.4a14.08 14.08 0 0 0 15.36-12.48m9.28-143.68V192a13.44 13.44 0 0 0 12.48 12.48h49.28v45.44a3.2 3.2 0 0 0 3.2 3.2c6.08 3.2 12.48 0 12.48-3.2L795.52 192a28.16 28.16 0 0 0 0-32l-37.12-57.92c0-2.88-3.2-2.88-3.2-2.88-6.08-3.2-12.48 0-12.48 2.88v49.28h-46.08a14.4 14.4 0 0 0-15.68 12.48M495.68 145.28h-172.8a48.32 48.32 0 0 0-49.6 46.72V527.36a48.96 48.96 0 0 0 49.6 48.64 58.88 58.88 0 0 1 55.68-49.28h231.36A56.32 56.32 0 0 1 665.6 576a48.96 48.96 0 0 0 49.6-49.28v-96a21.12 21.12 0 0 1 21.44-21.44 29.76 29.76 0 0 1 27.84 21.44v96a96 96 0 0 1-98.88 96A58.88 58.88 0 0 1 609.92 672H378.56a54.08 54.08 0 0 1-55.68-49.28 98.88 98.88 0 0 1-98.88-96V192a96 96 0 0 1 98.88-96h176a24 24 0 0 1 21.76 24.64 24.64 24.64 0 0 1-24.96 24.64z m-123.52 456a24 24 0 0 0 24.64 21.44h200.96a24 24 0 0 0 21.44-24.64v-3.2a23.68 23.68 0 0 0-24.64-21.44H393.92a26.88 26.88 0 0 0-21.76 27.84z"  horiz-adv-x="1024" />

    
    <glyph glyph-name="pandiandansvg1" unicode="&#59252;" d="M186.24 896h651.52Q1024 896 1024 709.76v-651.52Q1024-128 837.76-128H186.24Q0-128 0 58.24V709.76Q0 896 186.24 896zM328.64 624a58.24 58.24 0 0 0 60.16 48h246.4a60.8 60.8 0 0 0 60.16-48A100.8 100.8 0 0 0 800 528v-96a26.24 26.24 0 0 0-52.48 0v96a50.24 50.24 0 0 1-52.16 48 58.24 58.24 0 0 0-60.16-48H388.8a60.48 60.48 0 0 0-60.16 48 50.24 50.24 0 0 1-52.16-48v-336a50.24 50.24 0 0 1 52.16-48H512a24 24 0 1 0 0-48H328.64A100.8 100.8 0 0 0 224 192V528a100.8 100.8 0 0 0 104.64 96z m78.72 0a24 24 0 1 1 0-48h209.28a24 24 0 1 1 0 48zM381.12 432H512a24 24 0 1 1 0 48H381.12a24 24 0 1 1 0-48z m0-96h78.4a24 24 0 1 1 0 48h-78.4a24 24 0 1 1 0-48zM761.6 212.48l33.6-32a19.2 19.2 0 0 0-1.6-27.2c-9.6-7.68-18.88-7.68-24.32-1.92l-33.92 32a96 96 0 0 0-56-19.52 98.24 98.24 0 0 0-67.2 29.12 104 104 0 0 0 0 142.4 89.92 89.92 0 0 0 67.2 28.8 97.92 97.92 0 0 0 67.2-28.8A99.52 99.52 0 0 0 774.72 264a86.4 86.4 0 0 0-13.12-51.52z m-82.24-9.6a52.48 52.48 0 0 1 41.28 19.2 67.2 67.2 0 0 1 0 88.64 59.52 59.52 0 0 1-41.28 19.2 53.12 53.12 0 0 1-41.28-19.2 67.2 67.2 0 0 1 0-88.64 53.12 53.12 0 0 1 41.28-19.2z"  horiz-adv-x="1024" />

    
    <glyph glyph-name="ziyuan762" unicode="&#59253;" d="M186.24 896h651.52Q1024 896 1024 709.76v-651.52Q1024-128 837.76-128H186.24Q0-128 0 58.24V709.76Q0 896 186.24 896zM840.106667 553.386667c-106.666667 52.906667-211.626667 106.666667-318.293334 158.72a21.333333 21.333333 0 0 1-21.333333 0C397.866667 661.333333 295.04 608.426667 192 557.866667c-9.6-4.906667-18.56-8.96-21.333333-21.333334v-48.64a21.333333 21.333333 0 0 1 24.96-15.36 147.2 147.2 0 0 0 19.413333 0V102.4a51.626667 51.626667 0 0 1 9.6-33.92 34.133333 34.133333 0 0 1 26.666667-14.506667c9.6-1.066667 65.493333 0 75.946666 0V360.32h368.64v-306.773333a570.24 570.24 0 0 1 87.68 2.986666 45.653333 45.653333 0 0 1 25.813334 43.733334V474.026667h23.68c13.44 0 21.333333 7.893333 21.333333 21.333333v35.626667a22.4 22.4 0 0 1-14.293333 22.4z m-448-88.106667c0-5.76-2.133333-8.106667-7.253334-8.106667h-95.786666c-5.973333 0-8.106667 2.346667-8.106667 8.96v32.213334c0 5.76 2.133333 7.04 7.253333 7.04H384c5.333333 0 7.253333-1.92 7.253333-7.04 0.213333-11.093333-0.64-22.613333 0.213334-33.066667z m176 32.213333v-33.066666c0-5.76-2.133333-7.253333-7.253334-7.253334H465.066667c-5.973333 0-8.106667 2.346667-8.106667 8.96v31.36c0 5.546667 2.133333 7.893333 7.253333 7.893334h96.213334c5.333333 0.426667 7.68-2.346667 7.04-7.893334z m176.64-32.213333a11.733333 11.733333 0 0 0-1.066667-5.333333 7.466667 7.466667 0 0 0-6.826667-3.2h-93.866666c-6.613333 0-8.96 1.92-8.96 8.96v30.72c0 6.613333 1.706667 8.96 7.253333 8.96h95.573333a6.826667 6.826667 0 0 0 7.893334-7.893334zM624.64 79.36a21.333333 21.333333 0 0 0-28.586667 0l-47.573333 47.573333a99.413333 99.413333 0 1 0 28.586667 28.16L624.64 106.666667a21.333333 21.333333 0 0 0 0-27.306667z m-131.2 192A60.373333 60.373333 0 1 1 554.666667 210.346667a60.373333 60.373333 0 0 1-60.16 60.373333z"  horiz-adv-x="1024" />

    
    <glyph glyph-name="chukuguanli" unicode="&#59063;" d="M186.026667 896h651.946666Q1024 896 1024 709.973333v-651.946666Q1024-128 837.973333-128H186.026667Q0-128 0 58.026667V709.973333Q0 896 186.026667 896zM213.333333 85.333333V509.44L291.413333 682.666667h441.173334L810.666667 511.573333V85.333333H213.333333zM393.386667 303.36h79.36v-119.466667h78.933333v119.466667h78.933333L512 422.826667zM341.333333 631.893333L288 512h448L682.666667 631.893333z"  horiz-adv-x="1024" />

    
    <glyph glyph-name="danjuluzhi" unicode="&#59064;" d="M186.026667 896h651.946666Q1024 896 1024 709.973333v-651.946666Q1024-128 837.973333-128H186.026667Q0-128 0 58.026667V709.973333Q0 896 186.026667 896zM374.186667 298.666667h90.453333v-136.96H554.666667V298.666667h90.453333l-136.106667 136.106666zM314.026667 672.426667L256 536.32h512l-62.72 136.106667zM346.026667 651.093333V597.333333h331.946666V651.093333H810.666667V85.333333H213.333333V651.093333z m250.88-128l-42.666667-37.973333 81.92-70.4 42.666667 37.973333L597.333333 522.666667zM341.333333 305.493333v-71.253333h85.333334l-85.333334 71.253333zM533.333333 469.333333l-174.933333-148.053333 81.92-70.4 175.36 149.76z m-220.586666-259.413333v-56.746667h398.506666v56.746667z m265.813333 98.986667v-56.746667h132.693333v56.746667zM384 682.666667h269.653333v-58.88H384z"  horiz-adv-x="1024" />

    
    <glyph glyph-name="fenjianhuoguanli" unicode="&#59065;" d="M186.026667 896h651.946666Q1024 896 1024 709.973333v-651.946666Q1024-128 837.973333-128H186.026667Q0-128 0 58.026667V709.973333Q0 896 186.026667 896zM351.146667 294.4h90.453333v-136.533333h90.453333v136.533333h90.026667l-135.68 136.533333zM290.986667 669.866667L230.4 533.333333h512L682.666667 669.866667zM742.4 213.333333l-227.84-128h-5.973333l-226.133334 128a7.68 7.68 0 0 0-3.413333 6.4V298.666667a6.4 6.4 0 0 0 3.84 5.973333 7.253333 7.253333 0 0 0 7.253333 0l125.44-77.226667 89.173334 93.44a6.826667 6.826667 0 0 0 5.12 2.56 12.373333 12.373333 0 0 0 5.546666-2.133333l98.133334-93.44 122.453333 76.8a7.253333 7.253333 0 0 0 7.253333 0 7.253333 7.253333 0 0 0 3.84-5.973333v-78.08a6.4 6.4 0 0 0-4.693333-7.253334zM830.293333 394.666667a7.68 7.68 0 0 0 0-5.973334 6.826667 6.826667 0 0 0-3.84-5.12l-215.893333-121.6h-3.413333a7.253333 7.253333 0 0 0-5.12 2.133334l-94.293334 93.44-90.88-93.866667a7.68 7.68 0 0 0-5.12-2.133333 6.4 6.4 0 0 0-3.84 0L197.12 384a5.546667 5.546667 0 0 0-3.413333 5.12 6.826667 6.826667 0 0 0 0 5.546667l78.933333 93.013333L194.133333 567.466667a6.826667 6.826667 0 0 0 0 5.973333 5.973333 5.973333 0 0 0 3.84 5.12L393.813333 682.666667a6.4 6.4 0 0 0 6.826667 0l108.8-64L617.813333 682.666667a7.253333 7.253333 0 0 0 7.253334 0l203.093333-103.253334a6.826667 6.826667 0 0 0 3.84-5.12 6.4 6.4 0 0 0-2.133333-5.973333l-85.333334-79.786667zM298.666667 489.813333l213.333333-114.773333 213.333333 114.773333-213.333333 114.773334z"  horiz-adv-x="1024" />

    
    <glyph glyph-name="kucunyujing" unicode="&#59066;" d="M128 896h768Q1024 896 1024 768v-768q0-128-128-128h-768Q0-128 0 0v768Q0 896 128 896zM820.184615 474.190769l-291.643077 216.615385a39.384615 39.384615 0 0 1-7.286153 5.513846 19.692308 19.692308 0 0 1-26.781539-7.68l-289.673846-216.615385a23.236923 23.236923 0 0 1-3.150769-31.704615 19.692308 19.692308 0 0 1 28.947692-7.68l19.692308 15.36v-355.052308A23.630769 23.630769 0 0 1 273.132308 68.923077h460.012307H273.526154a19.692308 19.692308 0 0 1 5.907692 0h475.569231a23.630769 23.630769 0 0 1 22.843077 24.024615V445.636923l15.36-10.830769a19.692308 19.692308 0 0 1 28.947692 8.270769 24.418462 24.418462 0 0 1-1.969231 31.113846z m-179.396923-312.910769H377.107692a34.855385 34.855385 0 0 0-30.523077 19.692308 37.612308 37.612308 0 0 0 0 37.021538l131.741539 240.049231a34.461538 34.461538 0 0 0 61.243077 0l131.938461-240.049231a37.612308 37.612308 0 0 0 4.726154-18.510769 36.430769 36.430769 0 0 0-35.446154-38.203077zM509.046154 204.996923a21.661538 21.661538 0 0 0 0 43.323077 21.661538 21.661538 0 0 0 0-43.323077zM509.243077 264.664615c-6.695385 0-20.676923 72.270769-20.676923 90.978462s4.529231 32.492308 20.873846 32.492308 19.692308-13.390769 19.692308-32.492308-13.193846-90.978462-19.889231-90.978462z"  horiz-adv-x="1024" />

    
    <glyph glyph-name="jingyingfenxi" unicode="&#59067;" d="M128 896h768Q1024 896 1024 768v-768q0-128-128-128h-768Q0-128 0 0v768Q0 896 128 896zM827.076923 274.707692a95.901538 95.901538 0 0 1-4.726154-11.224615A78.769231 78.769231 0 0 0 748.307692 202.633846H275.692308a78.769231 78.769231 0 0 0-74.24 60.849231 112.64 112.64 0 0 1-4.726154 11.224615V624.836923A85.661538 85.661538 0 0 0 281.009231 699.076923h461.981538a79.950769 79.950769 0 0 0 81.329231-67.544615c0-2.166154 1.772308-4.332308 2.756923-6.498462v-350.326154zM512 653.587692H284.16c-35.052308 0-47.458462-14.178462-47.852308-53.956923v-297.353846c0-39.384615 12.406154-54.153846 47.655385-54.153846h456.073846c34.461538 0 47.064615 14.178462 47.064615 53.366154V600.615385c0 39.384615-13.390769 53.366154-47.064615 53.366153-75.421538-0.393846-151.433846-0.393846-228.036923-0.393846zM315.076923 68.923077v42.535385h118.153846v44.701538h157.538462v-42.732308h118.153846V68.923077zM550.203077 293.021538h-76.209231V562.412308h76.209231z m157.538461 179.003077v-177.230769h-76.20923v177.230769z m-315.076923-179.003077h-75.815384v133.71077h75.815384z"  horiz-adv-x="1024" />

    
    <glyph glyph-name="daibanshixiang" unicode="&#59068;" d="M128 896h768Q1024 896 1024 768v-768q0-128-128-128h-768Q0-128 0 0v768Q0 896 128 896zM366.670769 573.833846H689.230769a12.406154 12.406154 0 0 0 12.8-11.618461v-16.344616a12.406154 12.406154 0 0 0-12.8-11.618461H366.670769a12.209231 12.209231 0 0 0-12.8 11.618461V561.230769a12.406154 12.406154 0 0 0 12.8 12.603077z m-1.181538-78.769231H689.230769a12.406154 12.406154 0 0 0 12.996923-11.618461v-16.344616a12.406154 12.406154 0 0 0-12.996923-11.618461H365.489231a12.209231 12.209231 0 0 0-12.8 11.618461V482.461538a12.406154 12.406154 0 0 0 12.8 12.209231z m0-78.76923h198.498461a12.406154 12.406154 0 0 0 12.8-11.618462v-16.344615a12.406154 12.406154 0 0 0-12.8-11.618462H365.489231a12.209231 12.209231 0 0 0-12.8 11.618462V403.692308a12.406154 12.406154 0 0 0 12.8 12.20923z m0-78.769231H433.230769a12.406154 12.406154 0 0 0 12.8-11.618462v-16.344615a12.406154 12.406154 0 0 0-12.8-11.618462h-67.741538a12.209231 12.209231 0 0 0-12.8 11.618462V324.923077a12.406154 12.406154 0 0 0 12.8 12.209231z m423.975384 354.461538H279.630769a53.956923 53.956923 0 0 1-56.516923-51.003077v-539.175384a41.550769 41.550769 0 0 1 43.52-39.384616h191.015385a12.406154 12.406154 0 0 1 12.8 11.618462v16.344615a12.406154 12.406154 0 0 1-12.8 11.618462h-177.230769a12.209231 12.209231 0 0 0-12.8 11.618461v512a29.735385 29.735385 0 0 0 31.113846 28.16h460.8a29.538462 29.538462 0 0 0 30.916923-27.963077v-213.070769a12.012308 12.012308 0 0 1 12.8-11.618461h17.92a12.209231 12.209231 0 0 1 12.8 11.618461V653.193846a41.747692 41.747692 0 0 1-44.504616 39.384616zM694.744615 349.341538c-87.630769 0-158.72-64.196923-158.72-143.36s71.089231-143.556923 158.72-143.556923 157.538462 64.196923 157.538462 143.556923-69.907692 143.36-157.538462 143.36z m0-251.076923c-65.969231 0-119.532308 48.836923-118.153846 108.504616a113.821538 113.821538 0 0 0 118.153846 106.732307c65.969231 0 119.926154-48.049231 119.926154-107.52a113.821538 113.821538 0 0 0-119.926154-107.716923z m19.692308 115.003077v64a19.692308 19.692308 0 0 1-39.384615 0v-71.876923a16.738462 16.738462 0 0 1 5.907692-12.603077l39.384615-35.84a21.070769 21.070769 0 0 1 14.178462-5.12 21.858462 21.858462 0 0 1 13.981538 5.12 16.935385 16.935385 0 0 1 0 25.403077z"  horiz-adv-x="1024" />

    
    <glyph glyph-name="saomiaoguanli" unicode="&#59069;" d="M186.026667 896h651.946666Q1024 896 1024 709.973333v-651.946666Q1024-128 837.973333-128H186.026667Q0-128 0 58.026667V709.973333Q0 896 186.026667 896zM213.333333 591.36A90.88 90.88 0 0 0 304.213333 682.666667h90.88v-42.666667H306.346667a45.653333 45.653333 0 0 1-46.506667-48.64v-91.733333H213.333333zM396.8 85.333333H306.346667a90.453333 90.453333 0 0 0-90.88 91.306667v91.733333h46.506666v-91.733333A45.653333 45.653333 0 0 1 308.053333 128h90.88a298.666667 298.666667 0 0 1-2.133333-42.666667zM810.666667 176.64A90.453333 90.453333 0 0 0 717.653333 85.333333H627.2v46.933334h90.453333a45.653333 45.653333 0 0 1 46.506667 46.506666v91.306667H810.666667zM213.333333 408.32h595.2v-46.933333H213.333333zM810.666667 499.626667h-48.64V591.36a45.653333 45.653333 0 0 1-46.08 46.506667h-90.88V682.666667h90.88a90.88 90.88 0 0 0 90.88-91.306667z"  horiz-adv-x="1024" />

    
    <glyph glyph-name="qianshou" unicode="&#59070;" d="M186.026667 896h651.946666Q1024 896 1024 709.973333v-651.946666Q1024-128 837.973333-128H186.026667Q0-128 0 58.026667V709.973333Q0 896 186.026667 896zM655.786667 430.506667a26.453333 26.453333 0 0 1-35.84 0L469.333333 283.733333l-65.706666 64.426667a26.453333 26.453333 0 0 1-35.84 0 24.32 24.32 0 0 1 0-34.986667l85.333333-81.92a26.88 26.88 0 0 1 17.92-7.253333 25.173333 25.173333 0 0 1 17.92 7.253333l168.106667 164.266667a24.32 24.32 0 0 1-1.28 34.986667zM782.08 620.8h-72.96v11.52a15.36 15.36 0 0 1-15.786667 15.36h-85.333333a26.026667 26.026667 0 0 1 0 5.546667 99.84 99.84 0 0 1-191.573333 0v-5.546667h-85.333334a15.786667 15.786667 0 0 1-16.213333-15.36v-11.52H241.92A28.16 28.16 0 0 1 213.333333 593.066667v-522.666667a28.16 28.16 0 0 1 28.586667-27.733333h540.16a28.16 28.16 0 0 1 28.586667 27.733333V593.066667a28.16 28.16 0 0 1-28.586667 27.733333zM512 682.666667a57.173333 57.173333 0 0 0 53.333333-36.693334h-107.946666A58.026667 58.026667 0 0 0 512 682.666667zM355.84 591.36a15.36 15.36 0 0 0 15.786667 15.36h279.893333a15.786667 15.786667 0 0 0 15.786667-15.36v-6.826667a15.786667 15.786667 0 0 0-15.786667-15.786666H371.626667a15.36 15.36 0 0 0-15.786667 15.786666z m390.826667-483.84h-469.333334V563.2h38.4v-20.053333a15.786667 15.786667 0 0 1 16.213334-15.36h363.52a15.36 15.36 0 0 1 15.786666 15.36V563.2h37.546667z"  horiz-adv-x="1024" />

    
    <glyph glyph-name="rukuguanli" unicode="&#59071;" d="M186.026667 896h651.946666Q1024 896 1024 709.973333v-651.946666Q1024-128 837.973333-128H186.026667Q0-128 0 58.026667V709.973333Q0 896 186.026667 896zM213.333333 85.333333V509.44L291.413333 682.666667h441.173334L810.666667 511.573333V85.333333H213.333333zM630.613333 303.36h-78.933333v119.466667h-78.933333v-119.466667H393.386667l118.613333-119.466667zM341.333333 631.893333L288 512h448L682.666667 631.893333z"  horiz-adv-x="1024" />

    
    <glyph glyph-name="tiaoboguanli" unicode="&#59072;" d="M186.026667 896h651.946666Q1024 896 1024 709.973333v-651.946666Q1024-128 837.973333-128H186.026667Q0-128 0 58.026667V709.973333Q0 896 186.026667 896zM213.333333 85.333333V509.44L291.413333 682.666667h441.173334L810.666667 511.573333V85.333333H213.333333zM654.08 300.373333v101.973334h-47.786667v-101.973334h-71.68l95.573334-111.36L725.333333 300.373333h-71.253333zM298.666667 290.986667h71.253333v-101.973334H418.133333v101.973334h71.253334l-95.573334 111.36L298.666667 290.986667zM341.333333 631.893333L288 512h448L682.666667 631.893333z"  horiz-adv-x="1024" />

    
    <glyph glyph-name="kucunchaxun" unicode="&#59073;" d="M186.24 896h651.52Q1024 896 1024 709.76v-651.52Q1024-128 837.76-128H186.24Q0-128 0 58.24V709.76Q0 896 186.24 896zM258.56 413.44L480 621.44a49.92 49.92 0 0 0 67.2 0l220.8-208a24.32 24.32 0 0 1 34.88 0 24.64 24.64 0 0 1 0 35.2l-221.12 207.68a101.44 101.44 0 0 1-136.64 0l-224-205.44A26.88 26.88 0 0 1 218.56 416a32 32 0 0 1 40-2.56z m480-27.52a23.36 23.36 0 0 1-24.96-24.96v-175.36a50.24 50.24 0 0 0-49.6-50.24h-301.12a50.24 50.24 0 0 0-49.6 50.24v175.36a24.96 24.96 0 0 1-49.92 0v-175.36a100.16 100.16 0 0 1 99.52-100.16h298.56a100.16 100.16 0 0 1 99.52 100.16v175.36a21.76 21.76 0 0 1-22.4 24.96zM619.2 268.16l-34.88 32a90.24 90.24 0 0 1 13.44 53.76 103.04 103.04 0 0 1-29.12 73.92 101.76 101.76 0 0 1-69.76 30.08 93.44 93.44 0 0 1-69.76-30.08 103.04 103.04 0 0 1-29.12-73.92 104.32 104.32 0 0 1 29.12-73.92 102.08 102.08 0 0 1 69.76-29.76 103.68 103.68 0 0 1 58.24 19.84l34.88-32c5.76-6.08 15.36-6.08 25.28 1.92a20.16 20.16 0 0 1 1.92 28.16z m-77.76 41.92a55.04 55.04 0 0 0-85.12 0 68.8 68.8 0 0 0 0 91.84 53.76 53.76 0 0 0 42.56 19.84 59.84 59.84 0 0 0 42.56-19.84 68.8 68.8 0 0 0 0-91.84z"  horiz-adv-x="1024" />

    
    <glyph glyph-name="qitagongneng" unicode="&#59074;" d="M186.24 896h651.52Q1024 896 1024 709.76v-651.52Q1024-128 837.76-128H186.24Q0-128 0 58.24V709.76Q0 896 186.24 896zM429.76 621.76a16.32 16.32 0 0 0 15.04-13.76v-160a16 16 0 0 0-15.04-15.04h-160a16 16 0 0 0-13.76 12.48V608a16.32 16.32 0 0 0 15.04 15.04z m0 45.12h-160A58.56 58.56 0 0 1 213.44 608v-160a58.24 58.24 0 0 1 56-64h160a58.24 58.24 0 0 1 56 60.16V608a56.32 56.32 0 0 1-56 60.16z m0-345.28a16 16 0 0 0 15.04-15.04v-160a16.32 16.32 0 0 0-15.04-15.04h-160a16.32 16.32 0 0 0-13.76 13.76v160a16 16 0 0 0 13.44 14.72z m7.36-235.84a59.2 59.2 0 0 1 48.64 59.52v160a79.36 79.36 0 0 1-14.72 41.28 56.64 56.64 0 0 1-41.28 15.04h-160a56.64 56.64 0 0 1-41.28-15.04 79.36 79.36 0 0 1-14.72-41.28v-160a58.24 58.24 0 0 1 56-59.84h167.68m291.2 234.56a16 16 0 0 0 14.72-15.04v-160a16 16 0 0 0-14.72-15.04h-160a16.32 16.32 0 0 0-15.04 15.04v160a16.32 16.32 0 0 0 15.04 15.04z m0 41.28h-160a55.68 55.68 0 0 1-40.96-15.04 56.64 56.64 0 0 1-15.68-39.68v-160a56 56 0 0 1 56-59.84h160a58.56 58.56 0 0 1 56 59.84v160a79.68 79.68 0 0 1-15.04 41.28 56.32 56.32 0 0 1-40.32 15.04zM795.84 572.16L704 664.32a55.36 55.36 0 0 1-82.24 0l-93.12-92.16a73.92 73.92 0 0 1-16.64-40.32 75.84 75.84 0 0 1 15.04-40.64l93.12-92.16a54.72 54.72 0 0 1 78.4 0l93.44 92.16a59.2 59.2 0 0 1 18.56 40.64 76.16 76.16 0 0 1-14.72 40.32z m-33.6-47.68l-93.44-92.16a10.56 10.56 0 0 0-18.56 0l-93.44 92.16a13.76 13.76 0 0 0 0 22.08l93.44 91.84a13.12 13.12 0 0 0 11.2 3.84 13.76 13.76 0 0 0 11.2-3.84l93.12-91.84c3.84-7.36 3.84-18.56-3.52-22.08z"  horiz-adv-x="1024" />

    
    <glyph glyph-name="shujutongbu" unicode="&#59075;" d="M186.24 896h651.52Q1024 896 1024 709.76v-651.52Q1024-128 837.76-128H186.24Q0-128 0 58.24V709.76Q0 896 186.24 896zM736 576h-262.72a9.28 9.28 0 0 0-7.68 5.44l-29.44 60.48A49.6 49.6 0 0 1 392.64 672h-118.4A55.68 55.68 0 0 1 224 612.48v-438.72A72.64 72.64 0 0 1 289.6 96H736a72.64 72.64 0 0 1 64 77.76V497.92A72.64 72.64 0 0 1 736 576zM263.68 612.48a12.48 12.48 0 0 0 10.56 13.44h118.4a10.56 10.56 0 0 0 8.96-6.72l38.72-79.68a16.32 16.32 0 0 1 14.4-9.92H736a29.12 29.12 0 0 0 25.6-32v-323.84a29.44 29.44 0 0 0-25.6-32H288a29.44 29.44 0 0 0-25.6 32zM456.64 358.72a68.16 68.16 0 0 0 37.12 37.12 66.88 66.88 0 0 0 84.8-32l-18.88-18.88a7.36 7.36 0 0 1-1.92-5.12 8.64 8.64 0 0 1 1.92-5.44 8 8 0 0 1 5.44-1.92h49.92a14.72 14.72 0 0 1 14.4 12.8v52.16a7.68 7.68 0 0 1-7.36 7.36 8.96 8.96 0 0 1-5.44-2.24l-6.72-6.72a108.16 108.16 0 0 1-64 44.48 110.08 110.08 0 0 1-134.4-79.04v-4.8h44.8zM410.88 264.64a7.68 7.68 0 0 1 5.12-2.24 8.32 8.32 0 0 1 5.44 2.24l6.72 6.72a110.08 110.08 0 0 1 64-44.8 117.44 117.44 0 0 1 27.52-3.2 110.4 110.4 0 0 1 106.88 82.56v4.8H582.4v-2.24a67.2 67.2 0 0 0-121.92-5.76L480 320a7.36 7.36 0 0 1 1.92 5.12 7.04 7.04 0 0 1-7.04 7.36h-51.84a14.4 14.4 0 0 1-14.4-14.4v-49.92a7.68 7.68 0 0 1 2.24-3.52z"  horiz-adv-x="1024" />

    
    <glyph glyph-name="pandian" unicode="&#59076;" d="M186.24 896h651.52Q1024 896 1024 709.76v-651.52Q1024-128 837.76-128H186.24Q0-128 0 58.24V709.76Q0 896 186.24 896zM328.64 624A58.24 58.24 0 0 0 388.8 672h246.4a60.8 60.8 0 0 0 60.16-48 100.8 100.8 0 0 0 104.64-96v-96a26.24 26.24 0 0 0-52.48 0v96a50.24 50.24 0 0 1-52.16 48 58.24 58.24 0 0 0-60.16-48h-246.4a60.48 60.48 0 0 0-60.16 48 50.24 50.24 0 0 1-52.16-48V192a50.24 50.24 0 0 1 52.16-48H512a24 24 0 1 0 0-48h-183.36A100.8 100.8 0 0 0 224 192V528a100.8 100.8 0 0 0 104.64 96z m78.72 0a24 24 0 1 1 0-48h209.28a24 24 0 1 1 0 48zM381.12 432H512a24 24 0 1 1 0 48h-130.88a24 24 0 1 1 0-48z m0-96h78.4a24 24 0 1 1 0 48h-78.4a24 24 0 1 1 0-48zM761.6 227.52l33.6-32a18.88 18.88 0 0 0-1.6-26.88c-9.6-7.68-18.88-7.68-24.32-1.92l-33.92 32a92.16 92.16 0 0 0-123.2 9.6 104.64 104.64 0 0 0 0 142.72 89.92 89.92 0 0 0 67.2 28.8 97.92 97.92 0 0 0 67.2-28.8 100.48 100.48 0 0 0 28.16-71.36 87.68 87.68 0 0 0-13.12-52.16z m-82.24-9.6a51.84 51.84 0 0 1 41.28 19.52 66.88 66.88 0 0 1 0 88.32 58.56 58.56 0 0 1-41.28 19.52 52.48 52.48 0 0 1-41.28-19.52 66.88 66.88 0 0 1 0-88.32 52.48 52.48 0 0 1 41.28-19.52z"  horiz-adv-x="1024" />

    
    <glyph glyph-name="yidongpos" unicode="&#59077;" d="M186.24 896h651.52Q1024 896 1024 709.76v-651.52Q1024-128 837.76-128H186.24Q0-128 0 58.24V709.76Q0 896 186.24 896zM790.4 608l-5.44 12.8a96 96 0 0 1-66.88 54.4 323.52 323.52 0 0 1-83.52 7.36h-245.44a325.76 325.76 0 0 1-83.52-7.36 96 96 0 0 1-66.56-55.04L233.6 608a155.2 155.2 0 0 1-20.16-70.08c0-22.4 16.96-344.32 17.6-358.08A85.12 85.12 0 0 1 265.6 108.8a164.16 164.16 0 0 1 96-23.36h298.88a164.16 164.16 0 0 1 96 23.36 85.44 85.44 0 0 1 34.56 70.4c0 13.76 17.6 336 17.6 358.4A156.16 156.16 0 0 1 790.4 608z m-34.24-427.84a64 64 0 0 0-23.68-52.16 125.12 125.12 0 0 0-71.04-15.36h-298.88A124.16 124.16 0 0 0 291.2 128a64 64 0 0 0-23.68 53.12c0 3.52-17.6 335.36-17.6 357.12a141.12 141.12 0 0 0 18.56 64l5.44 13.12A64 64 0 0 0 320 650.56a276.8 276.8 0 0 0 70.4 5.76h245.12a276.8 276.8 0 0 0 70.4-5.76 62.08 62.08 0 0 0 44.8-37.76l5.76-13.12a141.12 141.12 0 0 0 18.56-64c-0.96-20.16-18.56-352-18.88-355.52zM716.48 561.6H311.68c-9.92 0-18.24-6.08-18.24-13.12s8.32-13.12 18.24-13.12h404.8c9.92 0 18.24 5.76 18.24 13.12s-8.32 13.12-18.24 13.12zM729.6 487.04a22.72 22.72 0 0 1-13.12 4.16H311.68a22.72 22.72 0 0 1-13.12-4.16 11.84 11.84 0 0 1-5.12-9.6c3.84-76.8 10.56-207.36 15.36-296a38.4 38.4 0 0 1 15.04-32 66.24 66.24 0 0 1 40.96-10.88h298.88A66.24 66.24 0 0 1 704 150.4a39.36 39.36 0 0 1 15.04 32c4.8 94.08 11.52 222.08 15.04 296a10.88 10.88 0 0 1-4.48 8.64z m-46.72-304.64a18.56 18.56 0 0 0-4.8-13.76 25.92 25.92 0 0 0-14.72-2.88H364.8c-11.52 0-18.88 0-19.52 16.64-4.48 83.52-10.88 204.48-14.72 282.24h366.72c-3.52-74.88-9.6-193.6-14.4-282.24zM593.6 593.92c7.36 0 13.12 4.16 13.12 9.28V614.4c0 5.44-5.76 9.6-13.12 9.6s-13.12-4.16-13.12-9.6v-11.2c0-5.12 6.08-9.28 13.12-9.28zM636.8 593.92c7.04 0 13.12 4.16 13.12 9.28V614.4c0 5.44-6.08 9.6-13.12 9.6s-13.12-4.16-13.12-9.6v-11.2c0-5.12 5.76-9.28 13.12-9.28zM679.68 593.92c7.36 0 13.12 4.16 13.12 9.28V614.4c0 5.44-5.76 9.6-13.12 9.6s-13.12-4.16-13.12-9.6v-11.2c0-5.12 5.44-9.28 13.12-9.28z"  horiz-adv-x="1024" />

    
    <glyph glyph-name="chukusaomiao" unicode="&#59078;" d="M186.24 896h651.52Q1024 896 1024 709.76v-651.52Q1024-128 837.76-128H186.24Q0-128 0 58.24V709.76Q0 896 186.24 896zM556.48 345.92H486.4V320h70.08z m-70.08-76.48h70.08v25.92H486.4z m0 128v-25.6h70.08v25.6h62.4a19.84 19.84 0 0 1 0 32l-78.08 64a32 32 0 0 1-39.04 0l-78.08-64a19.52 19.52 0 0 1 0-32zM682.88 672H640a26.88 26.88 0 0 1 0-53.44h43.84A70.4 70.4 0 0 0 750.4 544v-323.2a70.4 70.4 0 0 0-67.52-72.96H341.12a70.4 70.4 0 0 0-67.52 72.96V544a70.4 70.4 0 0 0 67.52 72.96H384a25.92 25.92 0 0 1 24.96 26.88A25.92 25.92 0 0 1 384 672h-42.88A122.24 122.24 0 0 1 224 544v-323.2a122.24 122.24 0 0 1 117.12-124.8h341.76A122.24 122.24 0 0 1 800 222.4V544a122.24 122.24 0 0 1-117.12 128z"  horiz-adv-x="1024" />

    
    <glyph glyph-name="xitongshezhi" unicode="&#59079;" d="M186.24 896h651.52Q1024 896 1024 709.76v-651.52Q1024-128 837.76-128H186.24Q0-128 0 58.24V709.76Q0 896 186.24 896zM796.8 327.68l-50.24 38.72a215.36 215.36 0 0 1 0 35.2l50.56 38.4a35.2 35.2 0 0 1 8.64 45.44l-56.32 96a36.48 36.48 0 0 1-43.84 16l-60.48-23.68a256 256 0 0 1-32 17.92l-9.28 61.44a35.2 35.2 0 0 1-35.52 30.08h-113.28a34.88 34.88 0 0 1-35.52-29.76l-9.28-62.08a252.48 252.48 0 0 1-32-17.6L320 596.48a35.52 35.52 0 0 1-43.84-15.04l-56.96-96a34.24 34.24 0 0 1 8.96-45.12l50.24-38.72a167.68 167.68 0 0 1 0-17.6v-17.6l-50.56-38.4a34.88 34.88 0 0 1-8.64-45.44l56.64-96a36.8 36.8 0 0 1 43.84-16l60.48 23.68a201.6 201.6 0 0 1 32-17.6l8.96-61.44a35.2 35.2 0 0 1 35.52-30.4h113.92a34.88 34.88 0 0 1 35.52 29.76l9.28 62.08a231.36 231.36 0 0 1 32 17.6l59.84-23.36a36.48 36.48 0 0 1 44.16 15.04l56.96 96a34.56 34.56 0 0 1-11.52 45.76z m-81.6-114.24L640 243.2l-9.6-7.04a208.64 208.64 0 0 0-43.52-24.64l-11.52-4.48-12.8-79.04h-100.8l-11.52 78.72-11.84 4.8a183.04 183.04 0 0 0-42.88 24.32l-9.92 7.36-76.16-29.76-50.24 85.12 64 49.28v11.84A212.48 212.48 0 0 0 320 384a216.96 216.96 0 0 0 1.6 24.64v11.84l-64 49.28 50.24 84.8 76.16-29.76 9.6 7.04a195.2 195.2 0 0 0 43.52 24.64l11.52 4.8 13.12 78.72h100.8l11.52-78.72 11.52-4.48a205.12 205.12 0 0 0 43.2-24.32l9.6-7.36 76.16 29.76 50.88-85.12-64-49.28 1.6-11.84a160 160 0 0 0 0-49.28l-1.6-11.84 64-49.28zM736 186.24zM288 582.72zM512 496a112 112 0 1 1 112.64-112A112 112 0 0 1 512 496z m0-183.68A71.68 71.68 0 1 0 584.32 384 71.68 71.68 0 0 0 512 312.32z"  horiz-adv-x="1024" />

    
    <glyph glyph-name="zuoyefenpei" unicode="&#59080;" d="M185.6 896h652.8C963.2 896 1024 835.2 1024 710.4v-652.8c0-124.8-60.8-185.6-185.6-185.6H185.6C60.8-128 0-67.2 0 57.6V710.4C0 835.2 60.8 896 185.6 896zM409.92 359.36h-71.04a24 24 0 0 1-21.44-24.64 21.12 21.12 0 0 1 21.44-21.76h71.04a23.36 23.36 0 0 1 3.2 46.4zM480 427.2a26.56 26.56 0 0 1-21.44 27.52H336a24 24 0 0 1-24.96-21.44v-3.2a24 24 0 0 1 21.76-24.64h123.52a23.68 23.68 0 0 1 23.68 21.76zM669.44 306.88v-27.52a13.12 13.12 0 0 0-12.48-12.48H608v-46.08a3.2 3.2 0 0 0-3.2-3.2c-6.08-3.2-12.16 0-12.16 3.2l-37.12 58.56a28.16 28.16 0 0 0 0 32l37.12 58.56a2.88 2.88 0 0 0 2.88 2.88c6.4 3.2 12.48 0 12.48-2.88V320h46.4a14.08 14.08 0 0 0 15.36-12.48M678.72 162.24v27.52a13.12 13.12 0 0 0 12.48 12.48h49.28v46.08a3.2 3.2 0 0 0 3.2 3.2c6.08 3.2 12.16 0 12.16-3.2l37.12-58.56a28.16 28.16 0 0 0 0-32l-37.12-58.56a2.88 2.88 0 0 0-2.88-2.88c-6.4-3.2-12.48 0-12.48 2.88v50.56h-46.4a14.08 14.08 0 0 0-15.36 12.48M493.44 143.68H320a48 48 0 0 0-49.28 46.08v336A48.64 48.64 0 0 0 320 576a59.2 59.2 0 0 1 55.68-49.28H608A56.64 56.64 0 0 1 663.36 576a48.64 48.64 0 0 0 49.28-49.28v-96a21.12 21.12 0 0 1 21.76-21.44 30.08 30.08 0 0 1 27.84 21.44v96a96 96 0 0 1-98.88 96A59.2 59.2 0 0 1 608 670.4h-232A54.08 54.08 0 0 1 320 621.12a98.56 98.56 0 0 1-98.56-96v-336a96 96 0 0 1 98.56-96h176a24 24 0 0 1 21.76 24.64 24.32 24.32 0 0 1-24.32 25.92zM369.92 599.68a23.68 23.68 0 0 0 24.64 21.44h200.64a24 24 0 0 0 21.76-24.64v-3.2a24 24 0 0 0-24.64-21.44h-200.96a27.2 27.2 0 0 0-21.44 27.84z"  horiz-adv-x="1024" />

    
    <glyph glyph-name="rukusaomiao" unicode="&#59081;" d="M186.24 896h651.52Q1024 896 1024 709.76v-651.52Q1024-128 837.76-128H186.24Q0-128 0 58.24V709.76Q0 896 186.24 896zM486.08 421.12h70.08V448h-70.08z m70.08 76.48h-70.08v-25.92h70.08z m0-128v27.2h-70.08v-25.92h-62.4a19.2 19.2 0 0 1 0-32l78.08-64a32 32 0 0 1 39.04 0l78.08 64a19.52 19.52 0 0 1 0 32zM682.88 672H640a26.88 26.88 0 0 1 0-53.44h43.84A70.4 70.4 0 0 0 750.4 544v-323.2a70.4 70.4 0 0 0-67.52-72.96H341.12a70.4 70.4 0 0 0-67.52 72.96V544a70.4 70.4 0 0 0 67.52 72.96H384a25.92 25.92 0 0 1 24.96 26.88A25.92 25.92 0 0 1 384 672h-42.88A122.24 122.24 0 0 1 224 544v-323.2a122.24 122.24 0 0 1 117.12-124.8h341.76A122.24 122.24 0 0 1 800 222.4V544a122.24 122.24 0 0 1-117.12 128z"  horiz-adv-x="1024" />

    
    <glyph glyph-name="xiaoshouchukudansaomiaosvg" unicode="&#59082;" d="M186.24 896h651.52Q1024 896 1024 709.76v-651.52Q1024-128 837.76-128H186.24Q0-128 0 58.24V709.76Q0 896 186.24 896zM591.04 439.04a10.88 10.88 0 0 1-11.52 10.24h-137.28a10.24 10.24 0 1 1 0-20.48h137.28a10.56 10.56 0 0 1 11.52 10.24z m-23.36-64a10.88 10.88 0 0 1-11.2 10.24h-114.24a10.56 10.56 0 1 1 0-20.8h113.92a11.2 11.2 0 0 1 11.52 12.16z m-125.44-52.16a10.56 10.56 0 1 1 0-20.8H512a10.56 10.56 0 1 1 0 20.8zM556.48 251.2h-137.92a11.2 11.2 0 0 0-11.52 10.56V470.4a10.88 10.88 0 0 0 11.52 10.24h184a10.88 10.88 0 0 0 11.52-10.24v-83.52a11.52 11.52 0 0 1 22.72 0V480a22.08 22.08 0 0 1-23.04 20.8h-206.72A22.08 22.08 0 0 1 384 480v-229.76a22.08 22.08 0 0 1 22.72-20.8h149.44a10.88 10.88 0 0 1 11.2 10.56 10.88 10.88 0 0 1-10.88 11.2zM224 583.68A87.68 87.68 0 0 0 311.68 672h87.36v-43.2H313.6a44.16 44.16 0 0 1-44.8-45.12v-88H224zM400.96 96H313.6a87.68 87.68 0 0 0-87.68 88.32v88h44.8v-88a44.16 44.16 0 0 1 44.8-45.12h87.36a311.04 311.04 0 0 1-1.92-43.2zM798.08 184.32A87.68 87.68 0 0 0 710.4 96h-87.36v45.12h87.36a44.16 44.16 0 0 1 44.8 45.12v88H800zM798.08 495.68h-44.8V583.68a44.16 44.16 0 0 1-44.8 45.12h-87.36V672h87.36a87.68 87.68 0 0 0 87.68-88.32zM637.44 276.48h-38.08v-13.76h38.08z m-38.08-41.28h38.08v14.08h-38.08z m0 68.8v-14.08h38.08v14.08H672a10.56 10.56 0 0 1 0 16l-42.56 34.56a17.28 17.28 0 0 1-21.12 0L565.44 320a10.56 10.56 0 0 1 0-16.96z"  horiz-adv-x="1024" />

    
    <glyph glyph-name="zhongdaPOSxiaopiaosvg" unicode="&#59083;" d="M186.24 896h651.52Q1024 896 1024 709.76v-651.52Q1024-128 837.76-128H186.24Q0-128 0 58.24V709.76Q0 896 186.24 896zM512 672h205.12A79.04 79.04 0 0 0 800 589.76v-139.52a81.6 81.6 0 0 0-72-82.24c-10.88 0-14.4-7.36-14.4-17.92v-200.32A47.68 47.68 0 0 0 659.52 96h-28.48c-14.4 0-21.76 10.56-18.24 21.44s10.88 17.92 21.76 17.92h3.52c36.16 0 36.16 0 36.16 35.84v311.04c0 21.76 0 21.76-21.76 21.76h-277.12c-21.76 0-21.76 0-21.76-17.92V160c0-14.08 3.52-17.92 17.92-17.92h147.84c17.92 0 28.48-7.04 28.48-21.44a24 24 0 0 0-24.96-21.44h-161.92a45.44 45.44 0 0 0-50.56 50.56v200.32c0 14.4-3.52 21.44-17.92 21.44A76.48 76.48 0 0 0 224 442.88V596.8A75.84 75.84 0 0 0 299.52 672z m0-42.88H299.52a29.44 29.44 0 0 1-32-28.8v-157.44a32 32 0 0 1 32-28.48c10.88 0 14.4 3.52 14.4 14.4v67.84c0 10.88 0 14.4-10.56 17.92-14.4-3.52-18.24 7.04-18.24 17.92a20.16 20.16 0 0 0 21.76 14.4H713.6a20.16 20.16 0 0 0 21.76-14.4c3.52-10.88 0-17.92-10.88-24.96s-10.88-10.88-10.88-17.92v-64c0-14.08 3.84-17.6 18.24-14.08s24.96 17.92 24.96 39.36v128c0 32-14.4 46.72-46.72 46.72-64.96 3.52-134.08 3.52-198.08 3.52zM405.12 432.96h121.6a20.16 20.16 0 1 0 0-40h-121.6a20.16 20.16 0 1 0 0 40z m0-82.88h182.72a20.16 20.16 0 1 0 0-40h-182.72a20.16 20.16 0 1 0 0 40z m0-89.6h182.72a20.16 20.16 0 0 0 20.16-20.16 20.16 20.16 0 0 0-20.16-20.16h-182.72a20.16 20.16 0 0 0-20.16 20.16 20.16 20.16 0 0 0 20.16 20.16z"  horiz-adv-x="1024" />

    
    <glyph glyph-name="wuliuyunshuzhuangxiangsvg" unicode="&#59084;" d="M186.24 896h651.52Q1024 896 1024 709.76v-651.52Q1024-128 837.76-128H186.24Q0-128 0 58.24V709.76Q0 896 186.24 896zM800 393.28l-98.24 112h-80V608H280.96v-73.28H243.84a19.2 19.2 0 0 1-19.84-18.24 18.88 18.88 0 0 1 19.84-18.24h181.76a18.88 18.88 0 0 1 19.84 18.24 19.2 19.2 0 0 1-19.84 18.24H317.76v36.8h267.2v-307.2H492.8v-1.6a70.08 70.08 0 0 1-59.52 32 69.12 69.12 0 0 1-68.16-54.72v26.88H307.84v14.72a18.88 18.88 0 0 1-37.44 0v-50.24h93.76v-3.52a69.76 69.76 0 0 1 139.2 0h118.72v241.28h64l78.4-89.28v-115.52h-12.48a69.76 69.76 0 0 1-58.56 32 67.84 67.84 0 1 1 69.44-67.84H800z m-366.72-199.36a33.92 33.92 0 1 0 34.88 33.92 34.56 34.56 0 0 0-34.88-33.92z m258.88 0a33.92 33.92 0 1 0 34.88 33.92 34.56 34.56 0 0 0-34.88-33.92zM482.24 349.76a21.12 21.12 0 0 1-23.04 18.56H247.04a18.88 18.88 0 1 1 0-36.8h212.16a21.12 21.12 0 0 1 23.04 18.24zM425.6 416a18.56 18.56 0 1 1 0 36.8H243.84a18.56 18.56 0 1 1 0-36.8zM690.56 407.04h-40.64v-40.32h73.6l-32.96 40.32z"  horiz-adv-x="1024" />

    
    <glyph glyph-name="xianhuoxiaoshoudanluzhisvg" unicode="&#59085;" d="M186.24 896h651.52Q1024 896 1024 709.76v-651.52Q1024-128 837.76-128H186.24Q0-128 0 58.24V709.76Q0 896 186.24 896zM663.36 539.2a23.04 23.04 0 0 1-24.32 21.76h-292.16a23.04 23.04 0 0 1-24.32-21.76 23.36 23.36 0 0 1 24.32-22.08H640a23.04 23.04 0 0 1 23.36 22.08z m-49.6-133.12a23.36 23.36 0 0 1-24.32 22.08h-242.56a23.36 23.36 0 0 1-24.32-22.08 23.04 23.04 0 0 1 24.32-21.76h242.24a23.04 23.04 0 0 1 24.64 21.76z m-266.88-110.4a22.08 22.08 0 1 1 0-44.16h145.92a22.08 22.08 0 1 1 0 44.16zM589.44 140.16H296.64a23.36 23.36 0 0 0-24.32 22.08V605.44a23.04 23.04 0 0 0 24.32 21.76h391.04a23.04 23.04 0 0 0 24.32-21.76v-177.28a24.32 24.32 0 0 1 48.32 0V627.84A46.72 46.72 0 0 1 711.68 672H272.32A46.4 46.4 0 0 1 224 627.84v-487.68A46.72 46.72 0 0 1 272.32 96h317.12a22.08 22.08 0 1 1 0 44.16zM782.08 216.64a16.64 16.64 0 1 1 0 32h-41.28L796.48 320a16.32 16.32 0 0 1-3.52 23.36 18.88 18.88 0 0 1-25.28-3.2l-64-78.72-64 79.04a18.56 18.56 0 0 1-24.96 3.2 16 16 0 0 1-3.52-23.68l55.36-69.12h-39.68a17.6 17.6 0 0 1-17.92-16.64 17.28 17.28 0 0 1 17.92-16.64h59.52v-32h-59.52a17.28 17.28 0 0 1-17.92-16.64 17.6 17.6 0 0 1 17.92-16.64h59.52v-39.04a17.92 17.92 0 0 1 35.52 0v38.4h60.16a17.6 17.6 0 0 1 17.92 16.64 17.28 17.28 0 0 1-17.92 16.64h-59.52v32z"  horiz-adv-x="1024" />

    
    <glyph glyph-name="zuoyefenpeisvg" unicode="&#59086;" d="M186.24 896h651.52Q1024 896 1024 709.76v-651.52Q1024-128 837.76-128H186.24Q0-128 0 58.24V709.76Q0 896 186.24 896zM412.48 360.96h-71.04a24 24 0 0 1-21.76-24.64 21.12 21.12 0 0 1 21.76-21.76h71.04a23.36 23.36 0 0 1 3.52 46.4zM483.52 428.8a26.56 26.56 0 0 1-21.76 27.52h-123.52a23.68 23.68 0 0 1-24.64-21.44v-3.2a24 24 0 0 1 21.44-24.64h123.84a24 24 0 0 1 24.64 21.76zM672 308.48v-27.52a13.12 13.12 0 0 0-12.16-12.48h-49.92v-46.08a2.88 2.88 0 0 0-2.88-3.2c-6.4-3.2-12.48 0-12.48 3.2l-37.12 58.56a28.16 28.16 0 0 0 0 32l37.12 58.56c0 2.88 3.2 2.88 3.2 2.88 6.08 3.2 12.16 0 12.16-2.88V320h46.4a14.08 14.08 0 0 0 15.36-12.48M680.96 163.84V192a13.44 13.44 0 0 0 12.48 12.48h49.28v45.44a3.2 3.2 0 0 0 3.2 3.2c6.08 3.2 12.48 0 12.48-3.2L795.52 192a28.16 28.16 0 0 0 0-32l-37.12-57.92c0-2.88-3.2-2.88-3.2-2.88-6.08-3.2-12.48 0-12.48 2.88v49.28h-46.08a14.4 14.4 0 0 0-15.68 12.48M495.68 145.28h-172.8A48.32 48.32 0 0 0 273.28 192V527.36A48.96 48.96 0 0 0 322.88 576a58.88 58.88 0 0 1 55.68-49.28h231.36A56.32 56.32 0 0 1 665.6 576a48.96 48.96 0 0 0 49.6-49.28v-96a21.12 21.12 0 0 1 21.44-21.44 29.76 29.76 0 0 1 27.84 21.44v96a96 96 0 0 1-98.88 96A58.88 58.88 0 0 1 609.92 672h-231.36a54.08 54.08 0 0 1-55.68-49.28 98.88 98.88 0 0 1-98.88-96V192a96 96 0 0 1 98.88-96h176a24 24 0 0 1 21.76 24.64 24.64 24.64 0 0 1-24.96 24.64zM372.16 601.28a24 24 0 0 0 24.64 21.44h200.96a24 24 0 0 0 21.44-24.64v-3.2a23.68 23.68 0 0 0-24.64-21.44h-200.64a26.88 26.88 0 0 0-21.76 27.84z"  horiz-adv-x="1024" />

    
    <glyph glyph-name="tiaobochukuludansvg" unicode="&#59087;" d="M186.24 896h651.52Q1024 896 1024 709.76v-651.52Q1024-128 837.76-128H186.24Q0-128 0 58.24V709.76Q0 896 186.24 896zM685.12 192a21.44 21.44 0 0 1-21.44-21.76 32 32 0 0 0-30.4-32H288a21.44 21.44 0 0 0-20.8 21.76V606.4A21.44 21.44 0 0 0 288 628.48h352a21.76 21.76 0 0 0 21.76-22.08v-152.64a21.44 21.44 0 1 1 42.88 0V606.4a64 64 0 0 1-64 65.6H288a64 64 0 0 1-64-65.6V160a64 64 0 0 1 64-64h345.28a73.6 73.6 0 0 1 73.28 74.24 21.44 21.44 0 0 1-21.44 21.76zM616 504a21.44 21.44 0 0 1-21.44 21.76H336a21.76 21.76 0 0 1 0-43.52h258.56a21.44 21.44 0 0 1 21.44 21.76zM508.48 405.76H336a21.76 21.76 0 0 1 0-43.52h172.48a21.76 21.76 0 0 1 0 43.52zM508.48 285.76H336a21.76 21.76 0 0 1 0-43.52h172.48a21.76 21.76 0 0 1 0 43.52zM721.6 379.84l-19.2 11.52a10.56 10.56 0 0 0-3.84 14.72l7.04 12.48a10.24 10.24 0 0 0 14.4 3.84l73.92-43.2a12.48 12.48 0 0 0 3.2-2.56 10.24 10.24 0 0 0 2.88-7.36v-14.4a10.88 10.88 0 0 0-10.56-10.88h-192a10.88 10.88 0 0 0-10.88 10.88v14.4a10.88 10.88 0 0 0 10.88 10.88h124.16zM789.44 307.84h-192a9.6 9.6 0 0 1-10.88-10.56v-14.4a12.48 12.48 0 0 1 0-5.44 11.52 11.52 0 0 1 5.44-6.4l73.92-43.2a9.6 9.6 0 0 1 14.72 3.84l7.04 12.48a9.6 9.6 0 0 1-3.84 14.72l-22.4 13.12h128c7.04 0 10.56 3.52 10.56 10.88v14.4a9.28 9.28 0 0 1-10.56 10.56z"  horiz-adv-x="1024" />

    
    <glyph glyph-name="xianhuocaigoudingdanluzhisvg" unicode="&#59088;" d="M186.24 896h651.52Q1024 896 1024 709.76v-651.52Q1024-128 837.76-128H186.24Q0-128 0 58.24V709.76Q0 896 186.24 896zM637.12 145.6a21.44 21.44 0 0 0 8.96-1.92 20.16 20.16 0 0 0 7.36-5.12 24.96 24.96 0 0 0 5.12-7.68 25.6 25.6 0 0 0 1.92-9.6 23.36 23.36 0 0 0-1.92-9.6 23.04 23.04 0 0 0-5.12-8 25.28 25.28 0 0 0-7.36-5.12 21.44 21.44 0 0 0-8.96-1.92 20.48 20.48 0 0 0-8.96 1.92 25.28 25.28 0 0 0-7.36 5.12 23.04 23.04 0 0 0-5.12 8 23.36 23.36 0 0 0-1.92 9.6 25.6 25.6 0 0 0 1.92 9.6 24.96 24.96 0 0 0 5.12 7.68 16.96 16.96 0 0 0 7.36 5.12 20.48 20.48 0 0 0 8.96 1.92z m103.36 0a21.12 21.12 0 0 0 8.96-1.6 32 32 0 0 0 7.68-5.12 32 32 0 0 0 4.8-8 23.36 23.36 0 0 0 1.92-9.6 25.6 25.6 0 0 0-1.92-9.6 32 32 0 0 0-4.8-7.68 25.92 25.92 0 0 0-7.68-5.44 21.76 21.76 0 0 0-17.92 0 24.32 24.32 0 0 0-7.36 5.44 32 32 0 0 0-4.8 7.68 25.6 25.6 0 0 0-1.92 9.6 23.36 23.36 0 0 0 1.92 9.6 32 32 0 0 0 4.8 8 30.08 30.08 0 0 0 7.36 5.12 21.12 21.12 0 0 0 8.96 0.96z m41.92 150.72a24 24 0 0 0 10.56-1.92 11.52 11.52 0 0 0 7.04-6.4 11.2 11.2 0 0 0 1.6-6.4 13.76 13.76 0 0 0 0-5.44c0-1.6 0-5.12-3.2-9.92s-3.52-10.56-5.12-16.32l-5.76-17.6c-1.92-6.08-3.52-10.56-4.8-13.76a27.2 27.2 0 0 0-8-14.72 17.6 17.6 0 0 0-12.16-4.16h-132.8l3.52-24h125.44c8 0 11.84-3.52 11.84-10.88a17.28 17.28 0 0 0-2.24-9.28 10.24 10.24 0 0 0-9.28-3.84h-130.24a14.4 14.4 0 0 0-8.32 2.56 21.12 21.12 0 0 0-5.76 6.08 64 64 0 0 0-3.52 8.32 53.76 53.76 0 0 0-1.92 8.64s0 3.52-1.6 7.68 0 9.28-2.56 15.36-2.24 12.8-3.52 20.16-2.88 15.36-4.16 22.72l-10.56 59.84h-18.88a9.92 9.92 0 0 0-6.08 1.92 20.48 20.48 0 0 0-4.16 4.8 19.84 19.84 0 0 0-2.24 6.08 35.2 35.2 0 0 0 0 5.76 11.84 11.84 0 0 0 3.52 8.64 9.92 9.92 0 0 0 8.96 3.2h24.96a15.04 15.04 0 0 0 12.8-5.44 25.6 25.6 0 0 0 2.56-5.12L608 320v-24z m-9.28-23.36H617.6l8.64-48h129.92zM634.56 539.2a22.08 22.08 0 0 1-22.4 21.76h-273.28a22.08 22.08 0 0 1-22.72-21.76 22.4 22.4 0 0 1 22.72-22.08h273.28a22.08 22.08 0 0 1 22.4 22.08z m-46.08-133.12a22.4 22.4 0 0 1-22.72 22.08h-226.88a22.4 22.4 0 0 1-22.72-22.08 22.08 22.08 0 0 1 22.72-21.76h226.56a22.08 22.08 0 0 1 23.04 21.76z m-249.6-110.4a22.08 22.08 0 1 1 0-44.16h136.32a22.08 22.08 0 1 1 0 44.16zM565.76 140.16H291.84a22.4 22.4 0 0 0-22.72 22.08V605.44a22.08 22.08 0 0 0 22.72 21.76h365.76a22.08 22.08 0 0 0 22.72-21.76v-177.28a22.72 22.72 0 0 1 45.12 0V627.84A44.8 44.8 0 0 1 680 672H269.12A44.8 44.8 0 0 1 224 627.84v-487.68A44.8 44.8 0 0 1 269.12 96h296.64a22.08 22.08 0 1 1 0 44.16z"  horiz-adv-x="1024" />

    
    <glyph glyph-name="yidongPOSsvg" unicode="&#59089;" d="M186.24 896h651.52Q1024 896 1024 709.76v-651.52Q1024-128 837.76-128H186.24Q0-128 0 58.24V709.76Q0 896 186.24 896zM790.4 608l-5.44 12.8a96 96 0 0 1-66.88 54.4 323.52 323.52 0 0 1-83.52 7.36h-245.44a325.76 325.76 0 0 1-83.52-7.36 96 96 0 0 1-66.56-55.04L233.6 608a155.2 155.2 0 0 1-20.16-70.08c0-22.4 16.96-344.32 17.6-358.08A85.12 85.12 0 0 1 265.6 108.8a164.16 164.16 0 0 1 96-23.36h298.88a164.16 164.16 0 0 1 96 23.36 85.44 85.44 0 0 1 34.56 70.4c0 13.76 17.6 336 17.6 358.4A156.16 156.16 0 0 1 790.4 608z m-34.24-427.84a64 64 0 0 0-23.68-52.16 125.12 125.12 0 0 0-71.04-15.36h-298.88A124.16 124.16 0 0 0 291.2 128a64 64 0 0 0-23.68 53.12c0 3.52-17.6 335.36-17.6 357.12a141.12 141.12 0 0 0 18.56 64l5.44 13.12A64 64 0 0 0 320 650.56a276.8 276.8 0 0 0 70.4 5.76h245.12a276.8 276.8 0 0 0 70.4-5.76 62.08 62.08 0 0 0 44.8-37.76l5.76-13.12a141.12 141.12 0 0 0 18.56-64c-0.96-20.16-18.56-352-18.88-355.52zM716.48 561.6H311.68c-9.92 0-18.24-6.08-18.24-13.12s8.32-13.12 18.24-13.12h404.8c9.92 0 18.24 5.76 18.24 13.12s-8.32 13.12-18.24 13.12zM729.6 487.04a22.72 22.72 0 0 1-13.12 4.16H311.68a22.72 22.72 0 0 1-13.12-4.16 11.84 11.84 0 0 1-5.12-9.6c3.84-76.8 10.56-207.36 15.36-296a38.4 38.4 0 0 1 15.04-32 66.24 66.24 0 0 1 40.96-10.88h298.88A66.24 66.24 0 0 1 704 150.4a39.36 39.36 0 0 1 15.04 32c4.8 94.08 11.52 222.08 15.04 296a10.88 10.88 0 0 1-4.48 8.64z m-46.72-304.64a18.56 18.56 0 0 0-4.8-13.76 25.92 25.92 0 0 0-14.72-2.88H364.8c-11.52 0-18.88 0-19.52 16.64-4.48 83.52-10.88 204.48-14.72 282.24h366.72c-3.52-74.88-9.6-193.6-14.4-282.24zM593.6 593.92c7.36 0 13.12 4.16 13.12 9.28V614.4c0 5.44-5.76 9.6-13.12 9.6s-13.12-4.16-13.12-9.6v-11.2c0-5.12 6.08-9.28 13.12-9.28zM636.8 593.92c7.04 0 13.12 4.16 13.12 9.28V614.4c0 5.44-6.08 9.6-13.12 9.6s-13.12-4.16-13.12-9.6v-11.2c0-5.12 5.76-9.28 13.12-9.28zM679.68 593.92c7.36 0 13.12 4.16 13.12 9.28V614.4c0 5.44-5.76 9.6-13.12 9.6s-13.12-4.16-13.12-9.6v-11.2c0-5.12 5.44-9.28 13.12-9.28z"  horiz-adv-x="1024" />

    
    <glyph glyph-name="tiaobotongyongsvg" unicode="&#59090;" d="M186.24 896h651.52Q1024 896 1024 709.76v-651.52Q1024-128 837.76-128H186.24Q0-128 0 58.24V709.76Q0 896 186.24 896zM747.52 623.04h-52.16a28.8 28.8 0 0 1 0-57.6h52.16c-2.24 0 0-2.88 0-1.92v-399.36s-2.24-1.92 0-1.92H276.48c2.24 0 0 2.88 0 1.92V563.52s2.24 1.92 0 1.92h52.16a28.8 28.8 0 0 1 0 57.6H276.48A59.84 59.84 0 0 1 224 563.52v-399.36a59.52 59.52 0 0 1 52.48-59.52h471.04A59.52 59.52 0 0 1 800 164.16V563.52a59.84 59.84 0 0 1-52.48 59.52zM653.44 490.56h-41.92v144a26.24 26.24 0 1 1-52.48 0v-144h-41.92a5.44 5.44 0 0 1-5.12-5.76 7.36 7.36 0 0 1 0-4.8l68.16-99.84a4.8 4.8 0 0 1 7.36 0L657.6 480a6.72 6.72 0 0 1 0 8.32 6.08 6.08 0 0 1-4.16 2.24zM370.56 552h41.92v-144a26.24 26.24 0 1 1 52.48 0v144h41.92a5.44 5.44 0 0 1 5.12 5.76 6.4 6.4 0 0 1 0 3.52l-69.12 99.84a5.12 5.12 0 0 1-7.36 0l-68.16-99.84a6.4 6.4 0 0 1 0-8 4.48 4.48 0 0 1 3.2-1.28zM328.64 277.44a27.52 27.52 0 0 1 26.24-28.8h314.24a28.8 28.8 0 0 1 0 57.6h-314.24a27.52 27.52 0 0 1-26.24-28.8z"  horiz-adv-x="1024" />

    
    <glyph glyph-name="tiaobochukuzhuangxiangsvg" unicode="&#59091;" d="M186.24 896h651.52Q1024 896 1024 709.76v-651.52Q1024-128 837.76-128H186.24Q0-128 0 58.24V709.76Q0 896 186.24 896zM803.84 140.16A44.16 44.16 0 0 0 759.68 96H272a44.16 44.16 0 0 0-44.16 44.16v320a11.2 11.2 0 0 0 11.2 11.2h553.6a11.2 11.2 0 0 0 11.2-11.2zM534.08 660.8A11.2 11.2 0 0 0 544 672h120.96a44.8 44.8 0 0 0 39.04-18.56l85.12-119.04a11.52 11.52 0 0 0 0-11.52 11.2 11.2 0 0 0-9.6-6.08H544a10.88 10.88 0 0 0-11.2 11.2zM236.48 534.4l85.12 119.04A44.16 44.16 0 0 0 357.44 672H480a11.2 11.2 0 0 0 10.88-11.2v-132.8a11.2 11.2 0 0 0-10.88-11.2H245.44a11.2 11.2 0 0 0-9.6 6.08 10.56 10.56 0 0 0 0.64 11.52zM657.28 260.16h-41.92v113.6a26.56 26.56 0 0 1-52.48 0v-113.6h-41.92a5.12 5.12 0 0 1-5.12-4.48 5.12 5.12 0 0 1 0-2.88l68.16-78.72a6.4 6.4 0 0 1 7.36 0l68.16 78.72a4.48 4.48 0 0 1 0 6.4 6.08 6.08 0 0 1-2.24 0.96zM374.4 308.48H416v-113.6a26.56 26.56 0 0 1 52.48 0v113.6H512a4.8 4.8 0 0 1 5.12 4.48 5.12 5.12 0 0 1 0 2.88L448 394.56a6.4 6.4 0 0 1-7.36 0l-68.16-78.72a4.48 4.48 0 0 1 0-6.4 6.08 6.08 0 0 1 1.92-0.96z"  horiz-adv-x="1024" />

    
    <glyph glyph-name="xitongshezhisvg" unicode="&#59092;" d="M186.24 896h651.52Q1024 896 1024 709.76v-651.52Q1024-128 837.76-128H186.24Q0-128 0 58.24V709.76Q0 896 186.24 896zM796.8 327.68l-50.24 38.72a215.36 215.36 0 0 1 0 35.2l50.56 38.4a35.2 35.2 0 0 1 8.64 45.44l-56.32 96a36.48 36.48 0 0 1-43.84 16l-60.48-23.68a256 256 0 0 1-32 17.92l-9.28 61.44a35.2 35.2 0 0 1-35.52 30.08h-113.28a34.88 34.88 0 0 1-35.52-29.76l-9.28-62.08a252.48 252.48 0 0 1-32-17.6L320 596.48a35.52 35.52 0 0 1-43.84-15.04l-56.96-96a34.24 34.24 0 0 1 8.96-45.12l50.24-38.72a167.68 167.68 0 0 1 0-17.6v-17.6l-50.56-38.4a34.88 34.88 0 0 1-8.64-45.44l56.64-96a36.8 36.8 0 0 1 43.84-16l60.48 23.68a201.6 201.6 0 0 1 32-17.6l8.96-61.44a35.2 35.2 0 0 1 35.52-30.4h113.92a34.88 34.88 0 0 1 35.52 29.76l9.28 62.08a231.36 231.36 0 0 1 32 17.6l59.84-23.36a36.48 36.48 0 0 1 44.16 15.04l56.96 96a34.56 34.56 0 0 1-11.52 45.76z m-81.6-114.24L640 243.2l-9.6-7.04a208.64 208.64 0 0 0-43.52-24.64l-11.52-4.48-12.8-79.04h-100.8l-11.52 78.72-11.84 4.8a183.04 183.04 0 0 0-42.88 24.32l-9.92 7.36-76.16-29.76-50.24 85.12 64 49.28v11.84A212.48 212.48 0 0 0 320 384a216.96 216.96 0 0 0 1.6 24.64v11.84l-64 49.28 50.24 84.8 76.16-29.76 9.6 7.04a195.2 195.2 0 0 0 43.52 24.64l11.52 4.8 13.12 78.72h100.8l11.52-78.72 11.52-4.48a205.12 205.12 0 0 0 43.2-24.32l9.6-7.36 76.16 29.76 50.88-85.12-64-49.28 1.6-11.84a160 160 0 0 0 0-49.28l-1.6-11.84 64-49.28zM736 186.24zM288 582.72zM512 496a112 112 0 1 1 112.64-112A112 112 0 0 1 512 496z m0-183.68A71.68 71.68 0 1 0 584.32 384 71.68 71.68 0 0 0 512 312.32z"  horiz-adv-x="1024" />

    
    </font>
</defs>
</svg>
